<svg version="1.1" id="Lager_1" xmlns="http://www.w3.org/2000/svg" x="0" y="0" width="1306" height="830.5" viewBox="355 5.4 1306 830.5" xml:space="preserve"><style type="text/css">.st0{fill:#fafafa}</style><path class="st0" d="M1644.1 299.5c-7-9.8-15.7-17.9-22.3-28.1-13.9-21.4-23.4-43.5-28.3-68.6-2.6-13.1-4.2-25.3-2.5-38.6 1.7-13.2 3.3-26.5 5.3-39.6 2-12.9 6.7-24 11.4-36.1 3.6-9.2 4.4-19.2 5.8-28.9.7-4.5.8-8.8 2.3-13.2 1.4-4.2 3.3-8.2 4.2-12.6 1.1-5.5 1.7-11.2 3.4-16.6.8-2.7 1.4-5.3 2.3-8 .4-1.3 1.1-2.6 1.2-4h-6.6l-.1.1c-1.7 2.2-2.3 6-3.2 8.5-2.5 6.7-4.5 13.6-6.3 20.5-1.2 4.7-2.3 9.5-2.8 14.4-.4 3.9-1.3 7.2-2.1 11-1.3 6.2-2.4 12.6-4 18.7-5.3 20.1-12.8 39.4-16.8 59.8-2.2 11.1-3.6 22.4-4.1 33.7-.5 10.7 2.5 21.7 4.1 32.3 1 6.1 2.3 12.1 4 18.1 1.7 6 3.7 11.8 6.1 17.5 1.2 3 2.5 5.9 3.9 8.8.7 1.4 1.4 2.9 2.2 4.3.8 1.4 1.6 2.7 2.3 4.1.7 1.4 1.5 2.8 2.3 4.1.2.4.5.8.7 1.2 1.1 2 2.2 4 3.5 5.8 1.7 2.5 3.9 4.7 5.6 7.1 1.9 2.7 4 5.4 6 8.1 1.1 1.5 2.3 3 3.4 4.5l12 15.3c1.9 2.5 3.8 4.9 5.7 7.4 4.5 6 9.9 13.2 17.4 15.5.4.1.7.2 1 .3v-14.1c-6.8-2.4-12.5-6.4-17-12.7z"/><path class="st0" d="M1636.5 411.2c-10.5-5.1-20.4-11.7-29.4-19.1-9.6-8-18.4-17.1-26.1-27-5-6.5-8.3-13.7-12.7-20.5-4.7-7.4-11.2-13.3-16.7-20.1-11.9-14.9-20.8-32.7-29.1-49.7-4-8.2-8.4-16.4-11.2-25.1-3.2-9.7-3.2-20.1-5.6-30-2.2-8.8-1.5-17.3-2.1-26.2-.6-9.4-4.6-18.4-6.3-27.7-1.6-8.5-.2-16.6-.7-25.2-.6-10.2-1.6-19.8-.1-30 2.8-19.2 8.4-38 11.6-57.1 1.2-7 1.8-14.1 3-21.1.9-5.3 3.4-10.2 5.3-15.1 1-2.7 2-5.4 2.5-8.2.1-.6.5-2.4.5-3.8h-8.3c-1 1.2-1.7 3.1-2.4 4.2-4.5 7.5-6.3 15.5-8.5 24-1.3 5.1-2 10.4-2.8 15.6-.7 4.7-1.2 9.4-2.6 13.9-1.6 5.4-3.4 10.9-4.2 16.5-1.2 8.4-2.2 16.9-3.9 25.3-1.8 8.7-3.8 16.2-3.7 25.1.1 4.4.7 8.8 1.4 13.2.3 2.3.6 4.6.9 6.8.1 1.1.2 2.3.3 3.4 0 .5 0 1 .1 1.5 0 .3.1.7.1 1 0 .2 0 .5.1.7 0 1 .1 2 .2 2.9 0 .2 0 .4.1.6 0 .1.1.2.1.4.1.4.1.9.2 1.4.2 2.2.4 4.5.8 6.7.8 4.4 1.7 8.8 2.7 13.2 1.3 5.9 2.5 11.9 2.9 17.9 1.1 14.9 3.1 29.4 5.6 44.1 1.1 6.8 4.5 13.4 6.9 19.9 2.7 7.6 5.5 15.1 8.7 22.5 6.2 14.2 14.6 27.4 23.4 40.1 8.5 12.4 17.6 24.3 27.6 35.5 9.7 11 18.9 23.2 30.2 32.8 11.4 9.6 23.8 18.3 35.8 27.1 5.7 4.2 11.7 8 18.3 10.5 1.9.7 7.4 2.7 12 3.3V420c-2.8-.7-5.6-1.5-8.3-2.4-5.9-1.6-11.4-3.8-16.6-6.4z"/><path class="st0" d="M1631.2 438.6c-4-3.3-8.4-6.1-12.6-9.1-8.8-6.3-17.1-13.3-25.1-20.6-15.7-14.1-29.1-30.4-43.6-45.7-7.6-8-12.4-17.1-18.1-26.5-5.8-9.5-12.3-18.7-17.7-28.4-10.2-18.6-16.9-39.1-22.4-59.5-5.5-20.6-6.6-41.5-10.9-62.2-2-9.9-1.3-20.1-3.2-30-2.1-10.9-4.4-20.4-4.2-31.7.3-11.3.4-22.7.8-34.1.3-9.5 2.8-19.3 2.1-28.8-.3-3.9.8-7.2 1.6-11.1.9-4.4 1.8-8.8 3.1-13.1 1.8-5.7 3.6-11.4 5.5-17 1.1-3.5 1.8-6.9 2.5-10.4.4-1.7 1-3.4 1.3-5.1h-7.3c-1.2 2-1.8 5.3-2.4 7-3.2 8.6-5.6 17.8-7.6 26.7-1.2 5.2-1.3 10.5-1.9 15.8-.6 4.9-1.9 9.6-2.7 14.4-1.8 10.4-2.9 20.8-3.7 31.3-.6 7.9-1.1 15.9-.5 23.8.5 6 1.6 11.9 2.3 17.9.3 2.3.5 4.7.8 7 .4 3.7.7 7.3.9 11 .1 1 .4 2 .5 3 .2 1 .4 1.9.5 2.9.4 2.4.9 4.7 1.2 7.1 1.1 8.2 3.7 15.5 5.6 23.5 2 8.8-.7 17.6 1.1 26.5 1.7 8.5 3.1 17.1 5.8 25.4 5.3 16.3 8.8 33 15.3 48.9 6.7 16.5 15.1 32.3 24.9 47.2 4.2 6.5 8.4 13.1 12.8 19.5 4.8 7.1 11.8 13 17.6 19.4 5.9 6.5 12.2 12.1 18.8 17.9 5.6 5 8.6 11.9 14.5 16.9 13.3 11.2 25.4 22.8 39.8 32.7 6.9 4.8 14.4 8.9 20.8 14.3 2.9 2.4 4.9 5.7 8 7.8 1.7 1.2 3.7 1.9 5.7 2.4v-15.4c-7.6-2-15.5-7.7-21.3-12.7-3.3-2.6-5.3-6.2-8.6-8.9z"/><path class="st0" d="M1644.4 490.2c-7-8.3-15.3-14.7-23.6-21.6-8.4-7-16.2-14.5-24.1-22-8.3-7.8-17.7-14.6-25.5-22.8-6.7-7.1-12.2-15.4-18.2-23.1-6.6-8.6-14.2-16.5-21.1-25-14.6-18-27.2-37.9-36.9-58.8-9.4-20.1-15.6-41.8-20.6-63.4-2.5-10.9-4.6-22-5.4-33.1-.8-11.3-3.2-22-4.5-33.2-2.3-20.3-9.4-40.2-10.6-60.7-.2-3.3-.2-6.6-.2-9.9.2-12.2 1.9-24.3 3-36.4.4-4.1.1-7.5-.1-11.5-.2-4.6 1.7-9.3 2.3-13.8.6-5.1.9-10.7 1.8-15.8 1.2-6.4 1.8-12.9 3.2-19.3 1-4.4 2.5-9.6 2.8-14.4h-6.9c-1.5 3.4-2.1 8.5-2.6 10.6-1.9 7.5-3.6 15.4-4.8 23.1-1 6.2-1.2 12.5-2.6 18.6-1 4.7-2.5 9-2.9 13.8-.5 7.9-.2 15.8-.2 23.7 0 11.6.1 23.2 1.2 34.8 1 11 3.7 21.8 5.3 32.7 2.7 18.4 3.1 36.8 6.4 55.1 3.5 19.8 6.8 39 12.1 58.4 5.1 18.7 10.3 35.2 20.2 52.1 4.4 7.6 7.6 15.8 11.8 23.5 4.6 8.3 10.2 16 16 23.5 10.7 13.9 21.9 27.4 31.6 42.1 9.7 14.5 20.5 27.9 35.3 37.5 15.7 10.2 27.4 25.4 41.9 37.1 6.7 5.4 13.9 10.3 19.5 16.7 4 4.6 7.9 8.8 12.8 11.9v-17.5c-6.4-2.4-11.9-7.6-16.4-12.9z"/><path class="st0" d="M1647.5 537.5c-6.2-7-11.3-15-17.2-22.2-14.6-17.8-32.5-33.6-49.1-49.6-7.4-7.2-14.1-15.1-22.7-20.9-9.4-6.4-14-14.5-19.9-24.1-24.2-39.1-55.1-73.2-70.2-117.6-15.1-44.5-19.5-91.5-27.3-137.5-3.1-18.3-3.7-36.5-5.8-54.9-1.2-10.2-.9-20.5-.6-30.8.2-5.1.3-10.3.4-15.4 0-4.7.7-9.4.3-14.2-.4-4.5-1.2-9-1.2-13.6 0-6.5-.3-13-.3-19.5 0-4 .6-8 0-11.9h-6.4c-.1.6.1 1.4.2 2.1.2 2.9.7 5.7.8 8.6.1 3.7-.4 7.2-.8 10.8-.4 3.9 0 7.7 0 11.7 0 3.9-.2 7.7 0 11.5.1 2.4.9 4.6.7 7-.2 2.3-.2 4.6 0 6.9.3 5.2.8 10.5.2 15.7-1 8.7-1.6 16.7-.4 25.4 1.7 11.4 4.7 22.5 4.9 34.1.2 12.1 2.7 23.6 3.9 35.6.5 5.2 2.6 10 3.4 15.2.9 5.5.3 11.1.5 16.6.4 12.4 3.6 24.6 5.8 36.7 4.2 22.8 6.4 45.9 15.1 67.6 8.4 20.9 16.7 41.2 28.9 60.3 12.4 19.5 26.8 38.4 37.6 58.8 5 9.5 14.5 16.8 22.1 24.4 8.9 8.9 17.9 17.8 26.7 26.8 8.2 8.3 16.3 16.6 24.3 25.1 8.4 8.9 16.1 19 25.1 27.2 4.4 4 9.5 7 13.5 11.4 4 4.3 8 8.7 12.2 12.7 2.4 2.3 5.4 5.6 8.7 7.3v-16.5c-1.5-.7-3-1.3-4.2-2.2-3.4-2.6-6.4-5.5-9.2-8.6z"/><path class="st0" d="M1635.1 660.7c-3.7-4.6-6.2-11.2-9.3-16.3-12-19.4-20.2-40.1-30.3-60.4-9.8-19.7-24.2-38.5-39.3-54.4-6.9-7.2-15.6-12.6-22.3-19.9-7.1-8-14.5-16.2-22-23.9-6.9-7-14.1-14.8-20.1-22.5-6.3-8-11.5-17.2-18.1-25-14.3-16.9-22.2-35.1-28.9-56-3.2-10-4.7-20.4-7.9-30.5-3.6-11.2-10.1-21.3-13.4-32.4-3.1-10.5-2.3-21.6-4.8-32.2-2.8-11.6-3-23.3-5.3-35-1.7-8.3-1-16.8-1.8-25.3-.2-2.5-.6-5-1.1-7.5-.4-2.3-.3-4.1-.2-6.4 0-5.6-.9-11.1-1.1-16.7-.1-4.3.3-8.5-.3-12.8-.5-3.7-1.6-7.2-2.1-10.9-1-6.8-2.5-13.5-3.3-20.3-.7-6 .2-11.6-.1-17.6-.8-14.2-1.9-28.3-1.8-42.5.1-8.7-.8-17.6 0-26.3.2-2.8.9-5.9.2-8.7-.6-2.6-.7-4.9-.7-7.6 0-4.3.7-8.4.8-12.7 0-5.1.2-10.3-.3-15.4-.5-5.4-.5-11-1.7-16.3h-8.4c-.1 2.4-.1 4.7.1 7.1.4 5.1 1.3 10.1 1.7 15.2.4 5.9 1 11.7 1.5 17.5.4 4.8-.3 9.4-.4 14.1-.1 5 .8 10 1.2 15 .6 7 .8 13.9 1.4 20.9 0 .5.1 1 .1 1.5l.6 7.8c.2 2.6.3 5.2.5 7.8.1 2.6.3 5.2.4 7.8l.3 7.8c0 .6 0 1.3.1 1.9v1.6c.1 1.2.1 2.4.1 3.6v3.6c0 .5.1.9.1 1.3 0 .5 0 1.1.1 1.6.1 2.6.3 5.1.4 7.7.2 2.6.4 5.1.6 7.7.2 2.6.5 5.1.7 7.7.3 2.6.5 5.1.8 7.7.3 2.6.5 5.1.8 7.7.3 2.6.5 5.1.8 7.7.3 2.5.5 5.1.8 7.6 2.3 24.1-.7 48.8 2.8 72.6 1.6 11.4 5.1 22.5 6.9 33.9 1.6 10.1 4.3 20.6 7.9 30.3 7.7 20.6 10.2 42.7 18.1 63.3 3.7 9.7 10.6 18.3 16.3 27 6.2 9.4 11.3 19.4 17.2 29.1 5.1 8.3 8.4 18.2 16.2 24.4 7.6 6 16.2 10 22.7 17.4 6 6.8 8.9 18.1 16.5 23.4 8.7 6.1 17.4 9.7 24.9 17.6 15.3 15.9 26.1 33.3 36.2 52.8 4.8 9.3 10.5 18 13.9 28 3.4 9.9 8.3 19.6 13.4 28.8 4.5 8 9.2 16 16 22.2 3.9 3.6 8.4 6.3 11.8 10.1 2.7 3 6.8 4.8 10.4 6.5 1.8.9 3.7 1.4 5.7 1.7v-10.4c-1.2-.4-2.5-.7-3.4-1-7.5-2.5-17.5-5.8-22.6-12.1z"/><path class="st0" d="M1641.7 692.4l-.6-.6c-1.3-1.5-1.8-3.3-3-5-3.7-4.9-8.7-8.7-12.9-13.2-6.1-6.5-11-14.1-15.6-21.8-9.4-15.7-16.5-32.4-23.5-49.2-7.3-17.3-15.7-34.3-26.7-49.6-4.5-6.2-10.3-15.8-17-19.8-2.9-1.7-5.9-3-8.8-4.6-4-2.2-1.4 2.6.2 3.8 13.3 9.8 22.9 25.3 31.9 38.9 9.9 14.9 17.1 31.9 22.6 48.8 3.3 10.3 7.6 20.2 12.6 29.8 2.5 4.8 5.2 9.4 8.1 13.9 2.8 4.3 6.2 6.7 10 10.1 2 1.9 3.7 4.2 5.2 6.5 3.1 4.7 7.6 8.1 11.3 12.4 6.6 7.6 15.9 12.2 25.5 14.8v-7.1c-4-1.1-8.1-2.3-11.7-4.2-2.4-1.3-5.6-2-7.6-3.9z"/><path class="st0" d="M1635.4 704c-3.1-3.9-6.5-7.2-10-10.9-7.8-8.4-14.6-17.9-20.3-27.8-11.1-19.3-23.6-38.7-32.1-59.3-4.2-10-8.1-20.1-14.1-29.2-6.3-9.6-13.9-18.2-20.4-27.6-12.5-18.1-25.9-35.8-40.9-52-7-7.6-14.5-14.6-21.4-22.3-7.8-8.7-12-18.2-17.1-28.5-4.6-9.3-10.2-17.6-14.2-27.2-1.9-4.6-4.8-7.1-7.9-10.8-3.4-4-5.4-9.5-7.7-14.1-6.2-12.6-10.7-26.2-16.1-39.2-5.4-12.7-10.9-26.1-13.7-39.7-5.9-28.2-5.4-57.9-6.9-86.5-.5-9.2-.9-18.4-1.3-27.6-1-25.2-1.8-50.5-2.6-75.7-.8-24.7-1.3-49.5-3.7-74.1-.4-4.1-.2-8.3 0-12.4.6-10.9 1.6-21.8.2-32.7 0-.3-.1-.6-.1-.9h-3.2c-.4 1.8-.3 4.6-.4 5.5-.3 3.7.2 7.3.2 10.9-.1 5.7 0 11.1.5 16.7.3 3.6.1 7.2.1 10.8 0 2.9-.5 5.7-.6 8.6-.1 2.5.4 4.9.8 7.4.8 5.1.6 10.2.6 15.3 0 10.2-.3 20.4-.4 30.6 0 10.9 0 21.7.9 32.6.5 6.1.2 12.1.1 18.2v4.6c0 1.5.2 3.1.1 4.6 0 1 .1 2 .3 3 .1.4.1.8.2 1.2.1.6.2 1.1.2 1.7 0 .7.1 1.5.1 2.2.1 1.4.2 2.9.3 4.3.2 2.9.4 5.7.6 8.6.1 1.5.2 3.1.2 4.6.3 6.1.5 12.3.6 18.5.1 6.2.1 12.3.2 18.5v14.6c-.1 23.6-1.5 48.1 3.8 71.3 2.6 11.1 6.8 21.8 10 32.8 1.1 3.8 4.6 6.3 7.1 9.2 3.7 4.3 5.6 10.6 7.7 15.8 3.8 9.5 7.2 19.2 10.1 29 3 10 9 17.3 15 25.7 6.2 8.7 11.7 16.8 16.9 26 5.5 9.9 13.6 18.5 20.1 27.8 12.7 18.1 20.8 38.4 37.4 53.4 7.3 6.6 12.8 13.7 16.9 22.6 2.1 4.5 5.4 7.4 8.6 11.1 3.9 4.6 7.1 9.8 9.9 15.1 10.5 19.8 21.4 39.4 32 59.2 4.6 8.6 9.3 16.7 13.4 25.6 4.1 8.8 12.7 16.4 19.1 23.7 6.6 7.5 13.4 13 21.8 18.4 2.9 1.9 6 3 8.8 4.8 3.6 2.3 6.9 5.1 10.7 7.2 1.7.9 3.6 2 5.2 1.6v-9.6c-5-1.2-10-2.4-14.5-5.4-4-3.1-8.1-6-11.1-9.8z"/><path class="st0" d="M1350.6 208.5c0 .3.2.6.2.9v.3c.1.8.2 1.5.2 2.3.1.8.2 1.7.3 2.5.4 2.7.8 5.3 1.1 8 .3 2.7.6 5.3.6 8 0 1.6-.1 3.3-.3 4.9-1.1 9.9-2.1 19.9-3 29.9-1 11.2-3.9 23-1.1 34.1 1.4 5.7 4.1 10.4 5.1 16.3 1.2 7.2 1.2 14.5 2.3 21.8 3.5 22.5 13.9 40.8 23.9 60.9 4.5 8.9 11.5 15.8 15.5 25 2.1 4.8 4.6 8.9 8.4 12.6 1.1 1.1 5.7 7.3 7.4 7.2 2.4-.2-1.3-4.3-1.6-4.6-2.8-2.6-4.6-6.6-6.6-9.9-3.8-6.3-7.9-12.4-11.8-18.7-3.5-5.6-4.7-11.3-8.1-16.9-4.4-7.4-7.9-15.1-11.7-22.7-9.1-18.2-13.1-38.3-14.4-58.5-.5-8.4-2.5-17.8-1.5-26 1.3-10.8 3.1-21.6 4.2-32.5.5-5.1.4-11.1-.4-16.2-2-12.9-4.9-23.6-3-36.8 3.2-22.1 1.3-45.1 2.4-67.4.5-11.2-.1-22.5.4-33.7.4-10.4-1-21.1-.1-31.4.2-2.3.8-4.6.8-6.9 0-2-.3-4.1-.3-6.1 0-9.2.5-18.2 1.1-27.4.3-4.8.9-9.5.9-14.3 0-2.5-.4-4.9-.8-7.4 0-.2-.1-.4-.1-.6h-4.7v.1c-.2 1.1.1 2.5.1 3.5.1 2.8.2 5.5.3 8.3.3 7.6-.9 15.2-1.4 22.8-1 17.5.7 34.9.3 52.4-.3 13-.7 26-1.3 39-.6 13-.9 26-1.4 38.9-.2 7-.5 14-.9 21-.1 2.7-.5 5.3-.8 8-.3 2.7-.5 5.3-.4 8 .1.5.1.9.2 1.3z"/><path class="st0" d="M1338 180.7c-2.7 16.4-3 33.1-5.4 49.6-1.2 8.1-1.6 16.2-2.8 24.3-1.3 8.1-3.9 14.7-3.7 23 .4 17.1.1 33.5 4.3 50.2 2 7.9 4.6 15.7 8.1 23.2 3 6.6 9.3 11.5 14 16.9 3.8 4.4 7.4 3.4 3.3-2.2-4.2-5.7-8.8-13.4-11.3-20-2.6-6.9-6.5-12.4-8.1-19.9-1.6-7.8-2-15.8-2-23.8-.1-8.6 0-17.2 0-25.8 0-8.8 1.5-17.4 1.5-26.1 2.1-11.1 4.2-22.1 5.3-33.3 1.2-12.2.5-24.6 1.4-36.8 1.7-23.4 4.6-46.5 5.2-70 .3-10.5.9-21.1 1.4-31.5.2-3.5.6-7 .5-10.4-.1-3.1.5-6.1.6-9.2.1-2.6 0-5.2 0-7.8 0-6.5.8-12.9.2-19.5-.7-7.2-1.2-14.4-2.3-21.6-.2-1.3-.3-3.2-.9-4.6h-3.6c0 2.2.3 4.5.5 6.8.3 4.6.5 9.2.5 13.9 0 6.7.4 13.2.6 19.9.2 4.7.7 9.4 1 14.1.2 4-.7 7.7-.8 11.8-.3 9.4-.4 18.9-1.6 28.3-1.3 10.6-1.7 21.1-1.6 31.8.1 8.1-1.6 16.1-2.3 24.1-1 8.1-.7 16.5-2 24.6z"/><path class="st0" d="M1318.2 163.2c-.7 7.5-3.5 14.7-5 22.1-1.7 8.1-2.9 16.2-4.4 24.3-.6 3.2-.8 6.4-1 9.7-.2 3-.4 5.9-.9 8.9-.4 2.1-.8 4.2-1.5 6.2-.2.6-.4 1.1-.7 1.7-.4 1-.9 1.9-1.2 2.9-.3 1-.6 2-.9 2.9-1.4 4.8-2.5 9.7-3.3 14.6-.8 5.1-1.3 10.3-1.6 15.5-.2 5.1-.2 10.2.2 15.3.4 4.8 1.1 9.5 2.2 14.2 4.9 20.6 13.7 42.1 24.5 60.2 5.3 8.8 12.5 16.4 18.3 25 6.5 9.6 12.6 19.5 20.3 28.2 7 7.9 14 15.8 21.5 23.1 8 7.8 17.8 13.7 25.6 21.6 6.1 6.1 11.5 13 16.5 20.1 1.1 1.5 3.4 5.9 5.6 5.9 2.7.1-.9-6.6-1.3-7.4-4.1-7.8-11.3-12.5-16.7-19.2-2.9-3.6-5.7-6.9-9.1-10.1-3.9-3.6-6.3-8.2-10-12-6.7-6.8-15.7-10.7-22.3-17.6-7.6-7.9-13.8-18-19.7-27.2-5.6-8.7-12.1-17.1-16.8-26.3-4.6-8.8-12.5-14.4-16.5-23.7-4.5-10.4-8.7-21.1-11.6-32-3.2-12.3-2.6-24.4-2.9-36.9-.3-11.3 3-22.8 6.1-33.6 1.8-6 1.4-11.6 1.5-17.8.1-6.2 1.1-12.5 1.7-18.7 1.1-11.3 5.3-21.9 6.8-33.3 1.6-12.4 3.2-24.8 4.7-37.2 1.4-11.7 2.4-23.6 3.6-35.3 1-10.4 2.8-20.8 3.5-31.2.3-4.9 0-9.7.6-14.7.6-5.2 1.5-10.3 1.5-15.5 0-7.2.7-14.7 1.9-21.9.5-2.9.9-5.8.9-8.7h-3.7c-.1.1-.2.3-.3.4-.3.6-.1 1.5-.2 2.1-.3 1.9-.6 3.9-.9 5.9-1.2 7.9-1.3 15.8-2 23.8-.3 4.1-.8 8.1-1.2 12.2-.5 5.6-.8 11.2-1.6 16.8-1.1 8.3-1.6 16.7-2 25.1-.4 7.9-1.2 15.9-1.9 23.8-.8 8.1-3.4 15.7-4.4 23.7-1.2 8-1.2 16.1-1.9 24.1z"/><path class="st0" d="M1250.9 212.2c-4.6 11.5-8 23.5-11.5 35.3-2.8 9.3-8.2 19.8-7.7 29.7.5 11 4.9 23.2 9.8 33 9.7 19.7 19.6 40.3 35.7 55.6 15.5 14.8 31.6 30.5 45 47.3 6 7.6 10.3 16.1 18 22.2 3.3 2.6 7 5.2 9.3 8.8 2.6 4.2 4.2 7.7 8 11.1 7.4 6.6 11.8 12.2 16.5 21 5.4 10 14.3 17.2 22.1 25.2 6.1 6.2 10.9 13.5 16.8 19.8 5.8 6.3 12.1 12 18 18.2 6.2 6.6 11.4 14.1 17.2 21.1 5.5 6.5 12.3 11.2 18.4 17.2 5.5 5.4 8.6 12.8 11.8 19.7 1.7 3.7 4.5 6.7 6.9 9.9 4.2 5.4 6.1 13.3 8.2 19.7 3.2 9.7 5.6 19.7 7.9 29.6 2.2 9.6 3.2 19.2 3.3 29 .1 9.6-1.6 17.9-2.9 27.2-1.8 13.1-3 38.1 9.6 46.5 7.3 4.9 15.6 8.6 24.1 10.6.8.2 1.6.3 2.5.4.6.1 1.7.3 2.3-.1.1 0 .1-.1.2-.1.5-.5.2-1.4-.1-1.9-.4-.7-.9-1.2-1.5-1.6-1.2-1-2.7-1.6-4.1-2.3-.1-.1-.3-.1-.4-.2-1.6-.9-3.3-1.8-5-2.6-6.1-2.8-11.1-7.4-15-12.9-7.1-10.2-6.6-19.8-6.5-31.9.2-23.8 1.8-47.5-4.7-70.6-2.9-10.3-3.3-20.7-6.9-30.8-1.7-4.8-3.7-9.3-6.6-13.5-3.5-5.1-5.5-10.6-8.2-16.1-1.9-3.9-5.5-6.9-7.8-10.5-2.8-4.3-5.6-8.7-9.2-12.5-7.5-7.7-15-15.4-22.4-23.2-14.3-15.2-31.1-28-45.2-43.6-15.8-17.4-31.3-35.9-44.5-55.4-2.7-4-5-8.6-8.3-12.1-3-3.2-6.9-5.2-10.1-8.3-7.1-6.8-10.6-16.6-19.4-21.7-12.3-7.2-14.6-23.1-25.9-31.2-6.1-4.4-11.8-7.7-16.6-13.8-5.1-6.5-9.3-13.8-13.1-21.1-7-13.5-15.3-27.7-17.8-42.9-2.7-16.2 1.9-31.4 6.4-46.9 9.4-32.4 25.1-62.6 34.3-95 4.4-15.3 8.4-30.6 13.5-45.7 3.6-10.6 6.1-21.7 7.1-32.9 1.1-11.5.2-23.2.8-34.8.3-5.8 1-11.5.4-17.3-.4-4-1.5-7.6-2.5-11.4h-5.8c-.1.1-.3.2-.4.4-1.2 2 .9 7.6 1.3 9.5 1.5 7.3 2.6 14.9 2.9 22.4.1 4.6.1 9.2 0 13.8-.1 3.6.1 7.1-1.1 10.5-2.7 7.6-2.7 16.4-4.2 24.3-2.2 11.3-6.1 22.7-9.5 33.8-6.6 21.9-13 42.9-22.6 63.7-4.4 9-7.1 19.1-10.8 28.4z"/><path class="st0" d="M1267.9 32.6c0 4.9.2 9.8.4 14.6.2 6.7.1 13.5-.2 20.1-.2 4.6-.8 9.2-1.8 13.7-3.9 17.8-8.1 35-14 52.4l-1.5 4.2c-1.6 4.4-3.2 8.7-4.9 13.1-1.7 4.3-3.5 8.6-5.3 12.9-1.8 4.3-3.7 8.5-5.6 12.8-1.9 4.3-3.8 8.5-5.7 12.7-1.9 4.2-3.8 8.5-5.7 12.8-1.9 4.3-3.8 8.5-5.6 12.8-1.8 4.3-3.6 8.6-5.3 12.9-.5 1-1 2.1-1.4 3.2-.4.9-.8 1.9-1.1 2.8-.5 1.4-1 2.8-1.4 4.2 0 .1-.1.3-.1.4-.2.8-.6 1.6-.9 2.3l-1.2 3.3c-1.6 4.2-3.3 8.5-4.4 12.9-1.1 4.4-1.8 8.9-1.5 13.4.7 11.1 5.6 22.7 10.8 32.4 5.3 9.9 12 19.1 18.4 28.2 6.9 9.7 13.5 20.5 22.2 28.7 6.9 6.5 11.3 15.1 18.2 21.3 7.9 7.1 14.6 15.7 23.4 21.7 2.9 2 6.4 4.1 8.1 7.3 1 1.9 2.5 6.4 5 6.8 5.8 1-3.5-12.1-4.2-13.2-5.1-7.8-11.9-13.8-19.7-18.7-3.6-2.2-7.2-4.4-10.3-7.3-3.7-3.5-5.5-8.3-8.5-12.4-6.3-8.3-14.2-15.2-20.4-23.6-6.8-9.2-12.7-18.9-18.2-28.9-5.1-9.4-10.6-19.1-13.7-29.3-3.8-12.6 0-22.7 4.1-34.6 7.5-22.2 15.4-44.2 25.5-65.4 9.7-20.3 17.4-41.5 24.1-63 3.3-10.5 5.4-20.9 8.2-31.5 1.7-6.5 4.2-12.9 5.9-19.4 1.8-6.9 1.8-13.7.9-20.8-.4-2.6-1-5.1-1.4-7.7-.9-5.9-.7-12-1.3-18-.3-3.2-.7-6.3-1.1-9.4-.3-2.7-.4-5.4-1.7-7.8 0-.1-.1-.1-.1-.2h-9.5c0 4.8 1.3 9.7 1.7 14.5 0 4.3.8 8.5.8 12.8z"/><path class="st0" d="M1182.3 198.3l-1.5 2.1c-8.5 12-13.7 23.1-17.9 37.1-3.9 13.1 5.3 26.5 11.7 37.3 6.8 11.6 14.6 22.7 23.7 32.7 4.5 5 7.5 10.3 10.6 16.3 1.3 2.6 2.5 5.4 4.2 7.9.8 1.3 1.8 2.5 3 3.4.8.6 3.3 1.8 4.1 1 .8-.8 0-2.5-.3-3.4l-1.5-3.6c-1-2.7-2.3-5.2-3.8-7.6-3-5-6.6-9.5-10-14.1-4.8-6.4-9.4-13.1-11.6-20.9-2.6-9.3-1.6-19.2-.7-28.7 1-9.8 0-19.7 1.3-29.5 4.8-37 36.8-63.5 47.4-98.5 4.2-13.8 5.7-28.2 8.1-42.3.9-5.3 2.5-10.3 4-15.4 1.3-4.4 3.3-9.7 2.8-14.2-1.1-9.9-2-20.2-.8-30.1.6-5.3.3-10.9-.7-16.2-.3-1.9-.9-4.4-2.1-6.3h-19.9c.1.8.3 1.5.3 2 .3 6.6 1 13.1 1 19.7 0 5.9.2 11.7.2 17.6 0 4.6.1 9.1-.9 13.6-1 4.4-1.8 8.9-2.5 13.4-1.6 9.9-2.4 19.9-4.2 29.8-3.6 19.4-8.8 36.8-16.6 55-6.3 14.7-17.9 28.7-27.4 41.9z"/><path class="st0" d="M1147 149c-4.1 8.5-8.7 16.8-13.7 24.8-4.8 7.7-10.6 13.7-16 20.8-10.2 13.4-13.7 34-14.6 50.4-.2 3.7 1.5 7.2 2.3 10.7.9 3.9.2 7.9 1.1 11.9 2 8.5 3 16.9 6.5 24.9 3 6.9 5.3 12.7 9.4 19.1 4.6 7.1 5.7 14.4 12.8 20 6.2 4.9 13.7 8.4 20.2 12.9 7.7 5.2 15.4 10.5 24.1 13.8 3.3 1.3 6 3.7 9 5.5 3.5 2.2 7.6 2 11.1 4 6.9 3.9 12.5 10.2 19.5 14.2 8.8 5.1 17.9 10.5 27 14.9 4.1 1.9 7.3 5 11.1 7.5 4.5 3 3-1.1.7-3.3-6.9-6.6-16.7-10-24.5-15.6-9.7-7.1-19.6-13.9-29.5-20.9-25.6-18.1-52.1-31-71-57.1-3.8-5.2-5-14.2-6.9-20.6-2.3-7.8-5.4-15.2-7.7-23.1-3.1-10.8-5.6-22.2-1.7-32.5 4-10.6 8.4-21 13.2-31.3 7.5-16.1 20.1-29.1 27.4-45.1 7.3-16.1 16.1-32.8 19.9-50.3 2-9.2 3.8-18.1 6.2-27.4.9-3.7 1.8-7.5 2.5-11.2.6-2.7 1.4-5.6 1.5-8.3.2-2.5-.1-4.8.3-7.4 1.5-9.3 2.2-18.8 3.4-28.1.5-4.1 1.2-8 1.2-12.1 0-1.3.1-3.4-.6-4.7h-8.2c-.1.8.2 1.8.3 2.6.1 2.9 0 5.9 0 8.8 0 6.5-.5 12.8-1.4 19.2-.7 5.2-2.1 10.3-3.1 15.4-1.3 6.9-3.3 13.7-5.2 20.4-2.1 7.3-3.9 14.6-6.4 21.8-6.3 18.6-11.5 37.5-20.2 55.4z"/><path class="st0" d="M1115 166.6c-2.1 3.4-4.5 6.8-6.7 10.3-1.4 2.2-2.6 4.4-3.7 6.7s-1.8 4.9-2.3 7.3c-.8 4-2.8 7.7-3.8 11.6-1.2 4.8-1.9 9.6-2.3 14.4-.4 4.6-2.7 8.8-2.5 13.6.2 4.2-.3 8.2-.7 12.3-1 10.2-.6 20.4-.4 30.7.2 9.9-.2 19.8 0 29.7.2 10.7.5 20.4 7.9 28.9 7 8 15 15.2 23.8 21.3 18.1 12.5 38.6 17.3 58.6 25.6 10.5 4.3 20.7 9.2 30.8 14.1 4.5 2.2 9.2 3.9 13.6 6.3 4.6 2.5 8.4 5.7 13.2 8 9.2 4.3 18.3 10.7 25.8 17.5 1.1 1 8.8 7.8 10 4.3.6-1.8-7.3-5.9-8.5-7.7-5.1-7.5-13.9-9.8-19.9-16.1-3-3.2-8.1-4.6-12-6.3-5.3-2.3-9.9-5.5-14.9-8.2-8.1-4.3-16-8.6-24.1-13-10.1-5.5-21-8.7-31.7-12.9-16-6.2-31.1-14.7-44.1-26-13.4-11.6-22.3-24.2-22.3-42.3 0-6.6.1-13.3 0-19.9-.1-6.2-.6-11.9-1.4-18.1-.4-2.7-.3-5.4-.5-8.1-.6-7 .6-13.7 1.6-20.6 1.1-7.3 1.1-15 3.4-22.1 2.6-8.2 5.4-17.4 10.1-24.6 5.1-7.8 9.2-16.5 13.6-24.7 9.8-18.5 17.9-36.9 23.6-57 2.9-10.3 4.2-20.8 5.7-31.3.5-3.8 1.4-7.7 1.4-11.5-.1-3.3.4-6.4 1.7-9.4 2.4-5.5 4.9-11 7.2-16.6 1.9-4.7 3.3-9.5 4.8-14.4.7-2.1 1.1-4.3 1.7-6.4.5-1.8 1.5-3.5 1.5-5.5 0-.2 0-.6-.1-1.1h-8.5c-.6 1.3-1.2 2.7-1.8 4.1-3.3 6.9-6.4 14.1-8.3 21.5-2.2 8.5-3.4 17.2-4 25.9-.3 4-1.3 7.7-1.7 11.7-.4 4-.5 8.1-1.4 12.1-2.5 11.1-2.8 22.4-5.2 33.5-2.5 11.3-9.1 21.8-14.7 31.8-4.1 6.9-8.3 13.8-12.5 20.6z"/><path class="st0" d="M1113.3 141.3c-2.5 5.1-6.4 9.2-8.9 14.2-1.9 3.7-3.3 7.5-5 11.2-.3.6-.5 1.2-.8 1.8-.3.6-.7 1.2-1.1 1.7-.6 1-1.3 2-1.9 2.9-.2.3-.3.5-.5.8-1.1 1.7-1.9 3.5-2.8 5.3-2.4 4.5-4.2 9.3-5.3 14.3-1.9 8.8.1 17.3-.8 26-1 8.8-2.4 17.2-2.2 26.1.3 9.6.6 19.5 0 29-4.2 20.7-9.5 41.2-7.3 62 3.8 8.4 9.8 15.4 17.4 20.6 7.6 5.3 15.6 10.9 23.5 15.6 16.3 9.7 34.9 14.4 53.5 17.2 10.9 1.6 19.6 6 29.7 10.1 9.1 3.7 22.6 4.9 29.2 12.1 6.4 6.9 17.5 10.6 25.3 15.5 8.4 5.2 18.8 9.2 25.4 16.7 6.8 7.6 12.9 16.1 17.9 25 2.4 4.3 5.6 8 9.3 11.2 2.7 2.3 9.8 6.9 13.6 5.7 6.2-2-12.2-15.2-14.1-16.9-3.3-3.1-6.7-6.5-9.5-10-3.1-3.9-4.9-8.2-9-11.3-7.3-5.4-13.2-12.9-21.8-16.6-9.1-3.9-17.5-11.3-25.7-16.8-8.6-5.9-17.4-9.5-26.9-13.6-10.6-4.5-20.6-10.1-31.6-13.8-14.6-4.9-31.4-3.9-45.3-10.7-7.2-3.5-13.8-8.6-20.7-12.7-6.9-4.2-13.9-8.3-20.4-13.2-10-7.6-19.4-20.3-16.4-33.7.7-3.2 2.3-6.1 2.7-9.4.5-4.1-.3-8.2 0-12.2.2-3.1 1.8-6.3 2.6-9.3.9-3.5 3.3-6.1 3.2-10-.1-2.5-.2-5.1-.3-7.6-.1-2-.7-4-.8-6.1-.3-5.2-.1-10.6-.2-15.8-.2-9.8 2.8-19 2.7-28.6-.1-9.7-.2-19.7 2.9-29 3.4-10.4 9.9-19.7 15-29.3 4-7.5 7.9-16.7 13.6-22.9 6.9-7.4 7.4-16.9 10.2-26.2 3.7-12.4 6.2-25.2 7.4-38 .6-6 1-12.2 1.1-18.2.1-7-.4-13.9-.1-20.9.4-7.1.8-14.2.2-21.3-.2-2.1-.9-4.6-1.7-6.7h-3.9v1.7c-.2 1.7-.5 3.4-.5 5.1-.2 5.3.3 10.6.3 16 0 5.9.6 11.6.1 17.5-.3 3.6-.2 6.9-1.4 10.3-1.1 3.2-.7 7-1 10.3-1.1 13.4-2.5 27.1-6.1 40.1-3.2 11.4-7.5 24-12.8 34.8z"/><path class="st0" d="M1107.7 119.4c-5.6 14.5-14 27.8-20.1 42.1-.2.4-.3.8-.5 1.2-3 7.2-5.6 14.7-7.7 22.3-.1.2-.1.5-.2.7-.5 2-1.1 3.9-1.5 5.9-.8 3.3-1 6.7-1.8 10.1-.4 1.7-.7 3.3-1 5-.1.5-.2 1.1-.3 1.6-.3 1.5-.7 2.9-1 4.4-.5 2.7-.4 5.5-.6 8.2-.1 1.7.1 3.6.2 5.4 0 1.9-.2 4.3.3 6.1.5 2 .1 4.4.1 6.4-.4 11.8 1.1 24.8-1 36.4-4.2 23.3-13.9 45.4-15.5 69.3-1 16 1.6 32.6 19.9 36.1 4.4.8 8.8.7 13.2 2 5 1.5 9.6 3.9 14.2 6.1 11.5 5.5 22.8 11.8 34.6 16.5 21 8.4 38.5 21 62.4 19.2 11-.8 19.4-.9 29.9 2.6 5 1.7 10 3 14.6 5.8 1.7 1 3.4 2 5.2 2.9 2.2 1.1 2.5-1.3.8-2.3-7.9-4.7-16.7-6.4-24.3-11.9-8.8-6.4-22.2-3.5-32.6-4.8-10.7-1.4-20.1-3.3-30.1-7.5-4.5-1.9-8.5-4.8-13.1-6.2-5.6-1.7-11.1-2.7-16.5-5-17-7.4-32.2-18.2-49.9-23.9-7.1-2.3-13.3-3.4-18.1-9.5-4.3-5.5-4.9-16.8-4.6-23.3.8-20.3 5.8-39.5 10.9-59.1 2.4-9.3 5.4-18.1 5.8-27.7.4-9.8-1.7-19.2-3.2-28.8.2-14.1 4.3-29.6 8-43.2 1.8-6.8 5.6-13.7 8.7-20.1 3.5-7.1 7-13.7 11.2-20.3 8.8-13.5 12.5-28.5 15.3-44.2 2-11.1 4.2-22.2 2.9-33.4-1.2-10.6 4.4-19.2 6.5-29.4 1.9-9.1 1.7-20 1.1-29.6h-8.2c-.7 2.6.2 6.4.4 10.3 1 20-4.7 38.6-6.8 58.2-1.6 15.2-2 30.9-7.6 45.4zM1052.5 183.1c-.6 11-2.5 21.8-3.7 32.8-1 10-1 19.9-1.5 29.9-.6 10.7-4.5 20.9-8.3 30.8-6.2 16.1-13.8 38-30.6 46-16.6 7.9-31.9 12.9-46.1 26.1-15.4 14.3-41.6 29.5-63.2 29.5-21.7 0-33.4-19.3-48.2-32.1-17.9-15.5-24.9-32-28.1-55.8-2.1-15.5-3-30.5-4-46.2-1-15.2-6.2-28.4-2.3-43.5 4.2-16.3 12.2-32.4 19.3-47.8 6.5-14.2 12.1-31.4 24.3-41.3 2.6-2.1 9-4.5 10.8-7.3 3.2-4.9-.3-12.8 1.2-18.2 1.7-6.4 8-10.9 13.4-14.2 2.8-1.7 5.6-3.2 8.2-5 2.9-1.9 7.1-1.4 10.3-.4 1.9.6 2.7 2 4.8 2.1 1.9.2 3.8-.2 5.5-.9 3.6-1.4 6.6-4.4 8.2-8 2.1-4.6 3.4-7.3-1-10.8-3-2.5-5.4-6.1-9.3-7.3-4-1.2-8-.5-11.9.5-2.6.7-5 .3-7.5.7-3.2.5-5.3 3.1-7.1 5.6-2.3 3.2-4.6 6.5-7.4 9.3-2.7 2.8-5.7 5.5-8.5 8.3-3.8 3.7-7.5 7.4-10.7 11.6-15.8 20.5-24.9 45.3-36.2 68.4-11.5 23.3-21.5 54.9-18.2 81.5 1.5 12.5 5.1 23.1 5 36.5 0 14.4-.2 28.9 1.7 43.2 6 44.9 48.8 78.9 92.2 80.9 16 .8 27.5-6.6 38.2-17.6 12.4-12.7 26.7-24 42.7-31.8 15.4-7.4 29.1-6.3 41.4-20.4 7.8-9 8.6-22.2 14-32.6 6.3-12 10.2-25 14-37.9 1.8-6.2 1.7-12.9.8-19.3-.9-6.8.2-12.6 1.1-19.4 1.8-13.5-.5-27.3 1.4-40.9 2-13.8 6.3-26.9 10.4-40.3 4.1-13.5 7.1-26.2 7.4-40.5.2-7.4-2.1-14.6-2-21.9.1-10.8-.3-22.7 1.8-33.3 1.9-9.5 7.4-17.5 7.9-27.1h-8.5c-8.2 11.8-5.7 47.3-5.8 55.2-.1 10.2.5 20.1-.4 30.3-.8 10.2-2 20.3-4.1 30.3-2.3 10.9-6.2 21.2-9 32-2.4 10.3-1.9 20.2-2.4 30.3zM968 413.9c3.5-4.3 3.8-10.5 8.2-13.8 4.2-3.2 8.7-5.1 12-9 2.2-2.6 4.4-5.1 7.2-7 3.1-2.1 5.9-4.7 9.6-5.8 1.6-.5 3.7-.4 4.5-2 .4-.8.7-2.1 1-2.8.2-.6 1.1-1.5-.4-2.2-1.1-.5-2 1.1-2.8 1.5-.2.1-.3.2-.5.3-10.4 5.5-24.6 8.4-33.6 18.3-6 6.7-8.9 16.1-18.5 20.9-8.1 4.1-17.9 5.2-27.4 7.7-13.9 3.7 1.7 8.6 8.3 10.1 17.9 4.1 35-1.1 50.8-.9 3 0 5.8.9 8.8.6 3.6-.4 7.2-.9 10.8-1.1 3.4-.2 6.9.5 10.2 1.2 1.6.3 5.6 1 4.2-1.8-.8-1.6-1.8-1.1-3.2-1.1-2.6.1-5.3-.2-8-.9-3.3-.9-6.2-3.8-9.4-4.5-5.1-1.1-10.7.8-15.8 1-9 .3-18.2 1.6-28 .3-.6-2.8 10-6.5 12-9z"/><path class="st0" d="M1025 333.2c-1.9-.4-4.3 3.1-5.4 4.2-2 2.2-4 4.8-6.5 6.5-8.8 6-17.1 11.1-27.6 13.6-9.2 2.2-21.5 6.6-29 12.5s-11.3 15.4-19.6 20.6c-14.3 9-29.8 11.2-46.4 12.5-10 .8-21.6-5-29.2-11.2-5.6-4.6-9.6-13.7-17.7-14.1-1.6-.1-2.2.8-1.1 1.9 1.3 1.3 3.3 1.7 4.7 2.9l.2.2c1.2 1.2 2 3.1 2.8 4.6 2 3.5 4.1 7.2 7 10.1 6.5 6.4 15.8 9 24.4 11.3 6.3 1.6 12.4 3 18.7 1.6 4.2-.9 7.9-2.6 11.9-3.7 3.7-1 7.8-.8 11.6-1.5 9.7-1.8 18-2.7 26.2-9 7.2-5.6 10-15.1 16.8-21 5.9-5.1 13-8.6 20.1-11.7 8.5-3.7 17.4-7 25.2-12.2 3.6-2.4 7.8-5.5 10.2-9.2.8-1.5 6.1-8.2 2.7-8.9zM781.6 244.5c1.7 7.4 2.3 15 3.3 22.5.9 7 4.9 12.7 6.2 19.5.2 1.2-.1 4.4 1.2 4.6 3.2.5 1.7-6.2 1.4-7.4-2.1-8.4-2-16.7-3.1-25.2-1.3-10.6-2.1-21.6-2.1-32.4 0-7.6 1.1-15.2 1.2-22.8 0-5.6-3.6-14.6-.7-19.7 1.1-1.9 1.7-1.7 1.7-4 0-1.1.1-4.2-1-4.7-1.3-.7-2.7-.1-4 1.1-1.8 1.6-3.4 4.1-3.8 5.2-2.3 6-1.2 12.6-.9 18.8.3 6.9-.9 13.8-1.5 20.6-.7 8.1.3 16.1 2.1 23.9zM371.6 71c10.4-1.1 20.9-2.4 31.1-4.7 15.6-3.6 30.8-7.6 45.4-13.9 3.9-1.7 7.9-2.7 11.7-4.3 3-1.2 6-2.4 9.1-3.5 4.8-1.7 9.6-3.2 14.5-4.4 15.9-3.8 32.9-3.7 49.1-4.4 24.4-1.1 47.9-10.9 72.6-6.1 9.9 1.9 19.4 5.1 29.2 7.4 8.6 2 17.4 2.9 26.1 4.2 7.1 1 13 6 19 9.7 4.3 2.7 9.3 4.4 13.9 6.8 5.3 2.7 10 6.5 15.5 8.7 5.6 2.3 11.8 3 17.1 6 2.7 1.5 5.3 3.7 7.8 5.6 5.7 4.3 11.8 8.5 16.8 13.7 7.8 8.1 10 19.4 15.2 29.1 6 11.3 13.4 24.3 22.9 33.1 2 1.8 3.6 4.3 6.5 4.2 8.5-.3 14.4-20.2 16.5-26.3 1.3-3.8 8-22.8-1.4-22.1-1.2 7-5.8 30.8-12.1 34-8.5 4.3-13.5-8.4-15.5-14.2-6.7-19.7-15.6-36.5-31.3-50.8-14.3-13-35.4-26-53.9-32.7-8.1-3-16.7-4.5-24.7-7.7-8.8-3.5-17.4-8.4-26.6-11.1-17.3-5.2-38.4-7.2-56.3-8.7-17-1.4-35.1 3-51.8.1-18.1-3.1-31.3-5.7-49.2.4-18.9 6.5-34.9 18.1-53.2 25.6-10.5 4.4-21.8 10.2-33.4 10-9.7-.1-19.4-.3-29.1-.4-6.1-.1-12.2-.2-18.2.4v17.9c.5-.1 1-.1 1.4-.1 5.2-.2 10.3-1 15.3-1.5z"/><path class="st0" d="M420.4 99.6c2.1 1.6 8 1.4 10.7 1.7 5.9.5 11.1 2.3 16.6 4.1 5.6 1.8 11.9 2 17.8 2.5 12.5 1 25 1.6 37.5 2.9 23.5 2.5 40-1.4 62.1-10.1 16.3-6.5 31.9-14.5 49.4-17.7 33.2-6.1 63-6.2 92.5 11.7 6.1 3.7 16.6 8.9 21.3 14 5.5 5.9 7.4 16 9.2 23.9 5.1 22.1 15.7 43.5 17.1 66.2 1.2 19.9-.6 35.6 7.9 54.6 6.6 14.7 12.4 29.8 15.9 45.5 2.2 10.2 4.3 20.5 8.4 30.1 1.7 4 4.4 6.4 6.6 10 2.8 4.7 4.6 10 7.4 14.8 5.2 9.1 11.9 15.9 18.8 23.8 2.6 2.9 5.5 5.6 7.5 8.9 1.6 2.7 3.5 6.5 7.6 5.2 4-1.3 1.4-4.2-.7-5.8-3.5-2.8-6.5-5.7-9.8-8.8-7.9-7.5-15.4-19.3-19.6-29.3-2.1-4.9-4.3-9.7-6.3-14.6-.8-2-1.6-3.9-2.2-5.9-5-14.6-9.2-29.3-12-44.4-1.2-6.4-5.1-11.8-6.7-18.3-3.4-13.7-2.7-28-4.8-41.9-2.2-14.4-4.1-28.7-6-43.1-1.4-10.6-3.8-20.3-7.7-30.3-1.8-4.7-4.8-10.2-4.4-15.4.5-6.5 3-13 0-19.5-3.9-8.2-12.3-14.2-19-19.9-3.1-2.7-6.4-5.3-9.8-7.9-8.3-6.5-15.6-11.6-25.6-15.3-51.4-19-106.3.7-154.6 18.7-25.7 9.5-55.2 11.7-82.3 9.1-10.5-1-20.4-5.8-31.1-5.7-2.4 0-17.5 1.7-11.7 6.2zM1034 250.7c-2.4 12.9-7.7 26.6-16.9 36.3-15.6 16.4-45.6 22.1-66.2 31.5-19.7 9-48.6 29.2-71.2 14.2-6-4-8.9-10.4-11.8-16.7-2.9-6.3-7-12.4-11.2-17.9-4.2-5.6-8.8-16-9.8-22.9-.5-3.1.4-6.4-.1-9.5-.6-3.4-2.1-6.3-2.3-9.7-.2-3.4.5-7 .5-10.4-.1-6.9-1.6-12.9-6.4-18.2-2.6-2.9-7.7-6.7-11.6-6.5-.9 5.3 4.7 8.1 7.1 12.4 3.2 5.9 3.1 14.4-.4 20-3.6 5.9-4.9 10.5-3.4 17.8 2.6 12.7 13.2 21.6 20.2 31.8 5.3 7.8 11.8 15 16 23.4 2.8 5.5 4.5 11.2 5.6 17.2.9 4.4 1.9 7 6 9.3 7.6 4.3 14.8 5.3 22.5 1.3 10.3-5.5 21.2-9.9 31.8-14.9 5.7-2.7 11-5.4 16.2-8.9 9.8-6.4 21.6-12 32.3-17.1 13.2-6.3 30.8-7.9 39.8-20.2 1.7-2.3 3.1-4.6 4.5-7 1.4-2.4 2.6-5 3.7-7.5 1.1-2.6 2.2-5.2 3.1-7.8.9-2.6 1.8-5.3 2.6-8 .3-.9.5-1.8.8-2.7.2-.6.3-1.2.5-1.7.4-1.5.8-2.9 1.1-4.4.7-3 1.2-6 1.5-9 .4-3 .7-6.1.8-9.1.2-3 .3-6.1.4-9.1.1-3.1.1-6.1.1-9.2 0-3.1 0-6.1.1-9.2v-.5c.1-8.7 1.5-17.1 2.3-25.7.8-9-.8-18.1.3-27.1.9-8 4.5-15.6 5.7-23.7 1.5-9.5.1-19.2.2-28.8.3-25.5 4.3-49.9 8.7-74.9 1.3-7.5 3.5-14.5 4.1-21.9h-12.8c-.4 11.6-3.7 23-5 34.6-1.3 12.1-2 24.1-2 36.3 0 10.7 1.8 21.3 1 32-.8 10.8-.4 21.5-1.8 32.3-1.3 10.6-1.4 20.9-1.8 31.5-7 25.2.1 52.3-4.8 78.3z"/><path class="st0" d="M1000 98.5c1.2 5.3 2.9 10.1 3.7 15.9 1.3 9.6.4 19.4-.1 28.9-.6 12.6 5.9 23.7 7.9 35.8 2.3 13.7 8 30.1 3.3 43.9-2.4 6.8-6.7 13.4-11.4 18.9-4.8 5.5-12.3 7.5-19 10.1-15.8 6.1-27.4 19.3-42.7 25.8-7.7 3.3-15.6 6.7-24.2 3.7-7.3-2.6-12.1-6.5-15.6-13.1-2.4-4.5-1.8-8.5-3.3-13.3-1.3-4.2-4.5-6.9-5.8-11-1.5-4.9-2-10.1-2-15.3 0-5.9-1.8-11.7-1.7-17.5.2-9 3.2-17.9.9-26.9-2.4-9.5-1.9-18.4 0-28 .9-4.3 2.9-8.2 4.3-12.3 1-3.1 3.1-5.8 3.8-9 .8-4.2 1.5-7.4 4.5-10.5 3.5-3.7 9-5.2 14-6.2 4.5-.9 8.8-2.4 13.2-3.8 3.6-1.2 7.7-2 10.8-4.3 4.1-3.1 12.9-9.7 11-15.6-.5-1.5-2.8-3.8-4.7-2.4-.5.3-.7 2.7-1 3.3-1.1 2.1-2.6 4-4.3 5.7-8.1 7.8-21.8 11.9-31.7 14.3-5.3 1.3-9.4 3.5-12.5 7.9-3 4.2-5.7 10.2-6.7 15.2-1.6 7.4-4.6 14.5-5.9 22-1.5 8.7-.4 16.7-.1 25.3.3 8-1.3 15.4-.3 23.4 1.1 9.6.2 19.4 2.1 28.9 1.7 8.2 4.5 16.4 6.6 24.2 2.3 8.8 7.1 17.8 14.2 23.6 5.7 4.7 13.9 3.4 20.8 1.6 8.7-2.2 16.8-6.5 24.9-10.2 5.6-2.5 10.6-5.8 16.2-8.1 3.6-1.5 7.3-2.9 11-4.3 5-1.8 5.3-.9 5.6-6.2 4.9-.6 8.1-.3 12.6-3 4.7-2.8 8.6-6.9 11.5-11.5 6.6-10.6 9.6-24 9.1-36.5-.3-8.1-2.2-16-3-24-.8-7.8-2.2-15.6-3.9-23.2-4.5-20.2-.9-41.2-5.1-61.6-5-24.1-1.9-49.3-5.9-73.7-1.1-6.6-.7-13.4-.2-20h-7.4c-.2 1.9-.3 3.9-.3 5.8.1 13.4 3.4 26.5 3.9 39.9.7 15.8-.6 31.8 2.9 47.4z"/><path class="st0" d="M900.7 189.2c-.1 6.8.3 13.5.7 20.3.3 6.6-.2 13 2.2 19.3 3.5 9.1 9.8 17.1 14 25.9 3.9 8 13.4 11.7 21.5 8.3 8.4-3.5 11.4-13.5 18.2-18.8 16.5-12.8 33.6-3.4 45.6-24 5.3-9.1 4.3-20.4.8-29.9-8-21.3-17.4-40.7-21.1-63.4-1.6-9.4-2.3-18.9-2.1-28.4.2-8.9 2-17.9 3-26.8 1.9-18.2-.6-36-1.7-54.3-.2-3.3.1-8.1-.5-12.2H971v6.2c0 14.1 7.7 25.8 6 40.1-.5 4.6-2.2 9-2.4 13.6-.3 6.3.4 11.9-1.1 18-1.6 6.3-.7 14-.5 20.5.5 14.8 2.6 29.5 6.4 43.8 4.7 17.6 32.3 52.1 19.7 69.7-5.9 8.3-15.5 6.9-24.5 8.8-8.1 1.8-17.3 6.2-23.2 12.1-4.8 4.7-11.8 21.3-19.1 18.2-9-3.7-5.1-21.8-7-29.5-1.7-7.1-1.9-13.2-.5-20.4.9-4.5 3.2-8.4 4.4-12.8 1.4-4.8 1.4-10.1 4.4-14.3 4.5-6.4 5.4-.5 10.7 1.5 15.7 6 19.7-5 22-17.1 2.4-12.5 1.4-20.6-11.3-25.7-32.4-12.9-53.8 24-54.3 51.3z"/><path class="st0" d="M937.8 7.8c-.1 4.8.3 9.6 1.7 14.2 1.2 3.8 3.3 7.4 4.1 11.2 4.2 20.4-12.9 40.9-29.6 50.3-11.5 6.4-30.4 13.2-36.3 25.7-4 8.5-5.9 18.7-9 27.7-7.3 21-10.7 40.1-8.8 62.7 1 11.2.9 23.2 2.8 34.2 2.6 15.4 7.5 31.4 11.6 46.4 3 11.1 7.1 27.2 15.9 35.1 16.8 15.1 43.6-5.8 57.8-15.1 10-6.6 19.9-14.1 31-18.9 12.2-5.3 24.8-3.6 34.8-14 7.1-7.3 11.1-17.2 14-26.8 3.4-11.1 2.8-22.3 2.6-33.8-.2-12-.3-24-.3-35.9 0-11 .1-22 .3-32.9.1-11.2.6-23.3-3.2-34.1-3.6-10.4-5.8-19.5-6-30.6-.1-7.9-.8-16.6 1.2-24.3 2-7.3 6-13.9 8.3-21 1.3-4 6.9-15.1 6.9-22.3h-12c-1.2 4.2-1.5 9.2-1.7 10.9-.7 5.6-2.2 10.8-4.2 16.1-5.9 16.1-11.9 31.7-8.6 49.5 2.1 11.6 6.1 22.5 9 33.8 1.6 6.5 1.1 13.5 1.5 20.1.5 8 .9 16 1.3 24 .8 16.3.5 32.6 1 48.9.5 16.5 2 29.6-7.7 44-3.6 5.4-8.4 11.8-14.6 14.2-8.5 3.2-17.9 1.6-26.6 5.1-9 3.6-16.8 9.5-24.7 15.1-10.9 7.7-22.8 16-35.3 20.5-10.6 3.8-11.9 3-17.2-6.1-5.3-9.2-12.3-18.8-16-28.8-6.6-17.7-6.3-38.2-6.9-57-.5-16.7-1.3-34.3 1-50.8 2.1-15.2 2-40.6 9.9-54 3.5-5.9 16.3-9.9 22.5-12 6.9-2.3 13.5-5.7 19.7-9.6 3.3-2.2 7-4.5 9.8-7.3 2-2 5.1-3.1 6.8-5.2 2.5-3.2 3.2-8 4.7-11.6 3.2-8.1 7.7-17.8 5.6-26.5-1-3.9-3.1-6.4-5.2-9.6-3.4-5.2-4.5-11.5-5.4-17.5-.3-2-.6-4-.8-6h-5.6c-.1.6-.1 1.4-.1 2zM697.9 7.3c2 .1 3 1.5 4.7 2.3l6.9 3.3c3.7 1.8 7.1 3.1 11.1 4.2 4.2 1.2 8.5 2.5 12.5 4.2 8.2 3.6 16 7 24 10.2 9.3 3.8 15.4 10.9 24.1 15 6.4 3.1 14.9 5.9 21.9 6.6 19 2 31.5-16.4 47.7-23.4 7.7-3.3 15.7-6.6 23.9-8.3 6.9-1.4 14.1-.9 20.6-3.9 2.4-1.1 4.8-2 7.1-3.6 3.5-2.3 7-5.1 9.4-8.6h-22.4c-2.3 1.8-4.9 3.2-7.7 4.3-12.8 4.9-25.7 8.2-37.6 15.2-8.1 4.7-17 12.3-25.9 14.6-22.2 5.7-39.6-3.7-58.7-13.2-6.2-3.1-12.7-5.4-19.2-7.8-2.8-1-5.3-2.7-8.1-3.8-3.2-1.3-6.5-2.5-9.6-3.9-3.3-1.4-6.4-3.2-9.8-4.3-1.2-.4-2.4-.7-3.6-1h-20.4c1.4.5 2.4 1.6 3.7 2.1 1.9.7 3.4-.3 5.4-.2z"/><path class="st0" d="M601.6 11.3c31.5 0 71 .5 99.2 16.6 7.2 4.1 15.5 7.2 22.8 11.5 8.6 5.1 15.9 12.8 24.7 17.5 11.3 6.1 17.3 16.3 28.1 23.7 7.5 5.2 15.4 10.5 24.4 11.9C815 94.7 821.5 89 832 79.8c14-12.3 26.7-25.1 39.7-38.5 4.1-4.3 9.3-7.1 15-8.9 6-1.9 12.8-3.6 19-3.7 2.4 0 4.9.4 7.3.9 3.2.6 6.2 2 9.3 2.6 2.7.5 4.9 2.4 6.3 4.7.3.5 1 2.1 1.8 1.5.6-.5-.3-2.7-.5-3.2-1.6-4.1-6.8-5.9-10.8-6.9-3.1-.7-6.2-1.6-9.4-1.9-5.2-.5-10.4.5-15.6.3-4.9-.1-10 .3-14.5 2.3-9.1 4-17.6 6.9-25.6 13.7-9.9 8.4-15.1 17.5-27.6 22.2-7.8 2.9-15.1 4.5-23.7 4.4-7.2-.1-15.5-1.1-22.1-4.1-7.4-3.3-14.3-11.7-20.8-16.6-7.7-5.8-15.7-12.2-24.8-15.8-15.4-6-32.2-13.9-47.8-17.8-6.5-1.6-13.6-1.4-20.3-2.9-10.6-2.4-21.4-5.3-32.3-6.3-1.7-.2-3.4-.3-5.2-.5h-60.9c-8.3.8-16.3 1.2-25.1 0h-15.6c2.2.8 4.3 1.5 6.5 2.2 21.5 6.1 45.2 3.8 67.3 3.8zM374.3 38.2c8.7 1.4 17.2 5 26 5.4 16.5.8 29-5.9 43.8-11.3 7.9-2.9 15.5-6.5 22.4-11.4 2.6-1.8 4.9-3.9 7.6-5.6 4.7-2.9 9.2-6.4 14.4-8.5 1.4-.6 2.9-1.1 4.4-1.6h-5.1c-2.6 1-5.3 1.9-8 3-2.8 1.1-5.6 2.4-8.1 4.2-10.2 7.3-20.7 14.8-32.6 19.1-15.2 5.5-30.7 8.1-46.9 3.6-8.6-2.4-15.6-4.1-24.6-3.5h-.5c-3.7.3-8 .7-12.1 1.5v6.4c6.5-1.1 13.2-2.3 19.3-1.3zM440 78.4c16.6 5.7 32.7 13.4 50.5 14.6 7.9.6 16.3-.7 24-2.4 3-.7 6.1-1.9 8.5-3.8 2.8-2.2 6.4-4.1 9.9-5 4.1-1.1 7.6-1.5 11-4 3.6-2.7 7.3-5.5 11.2-7.7 2.2-1.2 4.1-2.8 6.2-4.2 4.7-3.2 9.6-6.2 14.7-8.6 13-6.2 26.3-8.3 40.6-7.4 5.4.3 11 .8 16.4 1.6 4.7.7 9.3.9 14 2 4.1.9 8.4-1.5 12.4 0 3.9 1.4 7.7 3.1 11.6 4.3 2.2.7 7.5 1.1 3.4-1.3-1.5-.9-3.4-1.4-4.9-2-4.8-2-9.4-4.2-14.2-6.1-9-3.6-20.1-2.5-29.7-2.5-15 0-29.1-3-44.1-.6-5.1.8-11.7.3-16.2 3.2-1.9 1.2-2.9 3.1-4.9 4.2-2.4 1.3-5.4 1.8-8 2.6-4.3 1.4-8.4 3-10.9 7-1.2 1.9-1.7 4.2-3 6.1-1.7 2.6-4.4 4.7-6.7 6.8-2.8 2.6-5.8 4.6-9.3 6-2.5 1-5.1 1-7.7 1.6-2.6.6-4.4 1.6-7.2 1.6-5.9.1-11.8-.4-17.7-.6-10.6-.4-20.7-3.3-30.6-6.9-9.3-3.3-16.6-8.6-27-7.9-8.4.5-17.4 1.3-25.5 3.6-8.5 2.4-16.9 7.4-24.7 11.6-1.1.6-2.2 1.1-3.3 1.6-1.8.8-3.6 1.4-5.4 1.9-1.6.5-3.2.7-4.9.9-1.2.2-3.5-.2-4.5.1-1.8.6-2 2.1 0 3.3 3 1.7 8.1-.4 11.2-1 4.3-.9 8.4-3 12.3-5 3.6-1.8 7.3-4.3 11.1-5.7 4.3-1.6 9.1-2.4 13.6-3.2 9.2-1.8 18.8-1.8 27.8 1.3zM364.7 115.9c4.6-.4 8.7 1.9 13.2 2.4 2.5.3 5 .5 7.5.7 1.9.2 3.4.4 5.3.1 2.3-.3 5.1.3 7.4.6 4.9.8 9.7 2.1 14.4 3.4 4.2 1.1 8.6-.3 12.8 1.2 3.2 1.1 6.2 2.8 9.5 3.9 15 5.1 32.4 8.1 48.2 9.2 10.5.7 21.2.7 31.9-.5 9.8-1.2 19.1-4.5 28.8-6.7 10.1-2.2 19.4-6.4 29.4-9.3 17.1-4.9 34-12 51.3-17.6 14.2-4.5 30.4-4.3 45-.9 28.2 6.5 41.9 35.3 45.9 62.7 2.5 16.9 3.4 33.9 6.1 50.8 2.3 14.6 8.1 26.7 13.5 40.5 5 12.6 13.6 23.7 19.5 35.9 2.6 5.4 5.4 10.7 8.4 15.8 1.5 2.5 3.6 8 6.8 8.6 6.3 1.2-5.2-18.1-6.6-20.8-3.8-7.2-6.4-15-10.2-22.2-3.7-7-8-13.5-11-20.8-9.7-23.3-6.5-50.2-13.6-74.3-5.2-17.5-11.3-34.7-19.6-51-14.8-29.2-38.6-37.9-69.1-33.4-36.5 5.3-70.3 20.2-104 29.6-21.8 6.1-43.6 7.4-65.4 3.9-8.5-1.4-17.7-1-25.8-3.5-8.2-2.5-16.7-1.9-24.8-4.2-2.5-.7-4.7-2.2-6.8-3.6-2.4-1.7-4.8-3.3-7.7-4-4.5-1-10.5.5-14.9 1-7.2.7-13.2-.4-20.4-1.3-4.8-.6-9.7-.9-14.5-.9v5.7c2.4-.3 4.7-.5 7.1-.7.7-.1 1.5-.2 2.4-.3z"/><path class="st0" d="M393.9 226.5c14 .7 28.9 2 42.5-1.8 9.2-2.6 17.9-6.4 26.6-10.3 10.6-4.7 22.6-6.9 33.4-11.4 6.1-2.6 12.5-3.6 18.6-6.3 6.6-2.9 12.9-6.4 19.9-8 7.2-1.7 15.9-.7 23.2 0 14.2 1.4 28.3-1.3 42.6-1.3 9.8 0 21.9-1.9 31 2.1 6.5 2.8 10.7 8.4 15.8 13.1 3.3 3.1 6.3 6.6 9.5 9.8 3.4 3.5 7.7 6.2 10.8 10 1.1 1.3 2.3 3.5 4.3 3.1.6-2.5-2.1-4.2-3.5-5.9-2.3-3-4.8-6.2-5.8-10-.8-3.2-1.8-6-4.5-8.2-2.7-2.2-5.3-3.2-7.3-6-2.2-3.1-5.3-5.6-7.8-8.4-6.1-6.7-16.4-7.7-25.8-8.1-13.3-.5-27 .8-40.1 2.6-8 1.1-14.9.8-23 1.4-13.5 1-26.4 4.4-39.8 6.8-14.6 2.6-28.8 4.3-43 8.4-9.3 2.7-18.6 5.1-28 7.5-9.7 2.5-18.5 6-28.6 5.9-10.3-.1-20.1-.5-30.4-1.8-9.8-1.2-19.7-1.7-29.6-1.5V221c6.3.3 12.9.5 18.8 1.9 6.7 1.7 13.3 3.2 20.2 3.6z"/><path class="st0" d="M658.1 172.2c-3.6-4.8-9.5-10.7-15.8-10-11.1 1.4-21.8 5.2-32.9 6.8-3 .4-5.9.7-8.9.8-1.4 0-2.8-.1-4.2-.1-.6 0-1.3-.2-2-.3-.6-.1-1.2-.2-1.8-.1-.4.1-.8.3-.8.8.1.7 1.6.9 2.3 1 2.5.7 5.3 1.5 7.9 1.1 2.2-.4 4.6-.2 6.9-.5 4.9-.5 9.8-1.4 14.6-2.1 9.3-1.2 19.6-1.7 27.4 4.4l1.8 1.5c3.6 3.5 5.9 8.5 7.9 13 1 2.1 1.3 8.7 3.1 10 4.1 3 2.2-4.6 1.9-6.1-.8-4.1-.5-9-2.3-12.8-1.1-2.5-3.5-5.2-5.1-7.4zM402.6 249.7c12.8 1.6 23.8 5.9 36.9 4.2 13.8-1.8 26.6-3.2 39.7-8.5 20.7-8.4 31.2-28.8 53.1-34.3 11.7-2.9 22.9-5.6 35-4.9 11.3.6 22.2 4.2 33.3 6.1 6 1 12 1.3 17.7 3.7 6.6 2.8 12.5 7 19.1 9.9 5.2 2.3 10.4 3.1 15.7 5 3 1.1 6.2 2.4 9.2 3.7 1.5.7 3 1.4 4.5 2 1.6.6 3.2.9 4.8 1.5.9.3 1.8 1 2.7 1 2 0 .3-2.4-.5-2.9-2.2-1.4-4.8-1.8-7.1-3-3.3-1.7-5.6-4.5-8.6-6.6-6.8-4.5-15.4-7.2-22.8-10.5-8.8-3.8-17.6-7.6-26.8-10.5-22.8-7-58.1-18.1-80.4-5.7-19.9 11.1-35.4 30.4-56.6 39.2-24.6 10.3-56.4 9-81.9 2.6-7.1-1.8-14-4.2-21.1-5.9-.9-.2-1.7-.4-2.6-.6-3.6-.7-7.2-1.2-10.8-1.4v5.4c6.7.9 13.3 2 19.7 4.1 9.1 3.4 18.2 5.3 27.8 6.4z"/><path class="st0" d="M369.9 191.3c9.9.8 19.9-1.1 29.7-2 10.5-.9 21-1 31.5-2.1 3.8-.4 7.5-.7 11.3-1 10.7-.8 21.6-1.1 32.3-2.4 8.9-1.1 17.3 1.8 26.1 1.4 8.3-.4 16.3-2.5 24.4-4.5 7.5-1.9 14.5-5 22.3-5.8 5.6-.6 13.3-.2 18.4-2.6 4.2-2 6.1-4.2 11.2-4.9 6.8-.9 12.2-3.2 18.6-5.4 11.7-4 22.7-7.7 35.1-9 9.8-1 20.2-2.2 28.9 3.7 11.2 7.6 13.7 25.3 16.3 37.4 2.8 12.9 1.9 25.4 8 37.7 3 6.1 5.7 13.8 10.5 18.7 2.2 2.2 11.9 9 8.8 1.3-.7-1.8-2.8-3.1-3.8-4.8-3-5.5-1.8-11.9-5.2-17.3-3.1-5.1-4-10-6.2-15.6-2.6-6.7-6.1-13-6.7-20.3-.6-7.4.2-14.6-.9-21.9-1-6.4-.5-13.9-3.4-19.9-9.2-18.6-31.5-6.6-45.8-4.4-8.6 1.3-17.1 2.9-25.7 4.7-8.3 1.7-17.1 2.4-25.1 5-12 3.9-22.3 9.2-34.8 11.8-5.6 1.2-10.8 3.7-16.5 4.9-6.2 1.3-12.5 2.3-18.8 2.6-12.6.6-25.3-3.3-37.9-2.5-10 .7-19.9 4.5-29.9 5.8-7.9 1.1-15.9 2.2-23.9 2.6-5.4.3-10.3.5-15.3.4-3.5-.1-7.1-.2-10.9-.6-6.3-.6-12.6-1-18.9-1.4-6.1-.4-12.3 0-18.5.5v9.4c4.8-.1 9.8.1 14.8.5z"/><path class="st0" d="M427.9 166.5c10.2-1.4 20.4-2.8 30.7-2.4 3.3.1 6.6.4 9.9 1 11.3 1.8 23.7 4 35.1 2.3 5.1-.7 10.9-2.4 15.7-4.4 2.3-.9 4.8-2.7 7.2-3.2 5.2-.9 10.9 1.1 16.4 0 12.7-2.4 24.7-6 36.6-11.3 8.4-3.8 17.3-6 26.3-8.3 6.7-1.7 14.1-4.2 20.9-5.2 3.6-.5 7.3-.6 10.9-.4 2.3.1 4.7.2 7 .3 2.1.1 4.1-.1 6.1 0 1.6.1 3.3.2 4.9.3 2 .1 4 .2 5.9.4.6.1 1.1.2 1.7.2.3 0 .7.1 1.1.1.3 0 1.6.1 1.2-.5-.2-.4-.8-.3-1.1-.4l-1.8-.6c-1.2-.5-2.6-.9-3.8-1.6-.5-.3-.8-.6-1.4-.8-.7-.3-1.5-.4-2.3-.6-1.5-.3-2.9-.5-4.4-.2-1.5.2-3.1.2-4.6.3-3.2.4-6.4 1-9.7 1.3-7.1.6-13.4.7-20.4 2-13 2.5-24.7 6.2-37.3 10.4-6.6 2.2-12.7 5.5-19.4 7.3-5.8 1.5-11.9 2-17.8 3-12.3 2-24.3 4.6-36.6 6.9-11.9 2.2-25.4 0-37.7-.5-15.8-.6-30.8.1-46.4 1.6-8.6.8-17.1 2.2-25.7 2.3-4.8.1-9.5-.2-14.3-.2-4.3 0-8.2 1-12.3 1.4h-.2c-4.5.4-9 .7-13.6 1v4.6c17-.8 41.7-2.7 44.9-3.1 9.7-1.1 18.9-1.7 28.3-3z"/><path class="st0" d="M361.8 160.7c6.4.1 13 1.3 19.4.1 8.1-1.5 16.2-2.8 24.4-4 9.5-1.5 18.7-1.9 28.4-2.1 9.1-.1 18-4.8 27.5-4.7 6.7 0 13 2.2 19.9 2.8 10.4.9 21 1.8 31.6.5 6.1-.7 12.3-.7 18.4-1.8 6.1-1.1 11-3.4 16.5-6.3 6.5-3.4 13.5-6.7 20.4-9.3 9.7-3.6 19.6-6.4 29.5-10.1 11.4-4.2 23.5-7.2 35.8-6.2 13.9 1.2 33.3 3.6 44.9 12.5 10.8 8.3 13 22.1 15.5 34.4 3.2 15.6 6.4 31 9.7 46.5 1.8 8.6 1.6 18.5 4.7 26.9 2.5 7 13 30.4 22.3 29.9.1-3.4-2.7-5.5-4.6-8.5-4.7-7.4-6.2-15.6-8.1-23.9-5.1-21.6-9-43.3-13.1-64.9-1.3-6.7-2.5-13.1-4.7-19.6-3.4-9.7-9.2-19.4-16.3-26.9-16.5-17.1-48.4-12.9-68.7-8.6-16.1 3.4-32.1 8.6-47.2 14.6-7.4 2.9-15 5.5-22.1 9-4.7 2.3-9.2 5.5-14.4 6.6-7.9 1.7-16.7 1.5-24.7 1.2-14.3-.6-28.7-1-42.5-3.4-13-2.3-28.2 3.9-40.8 5.9-2.4.4-20.6 2.1-35.5 3.4-7.3.6-14.3 1.1-21.6 1-3.8-.1-7.6-.1-11.4-.2v5.2h6.8z"/><path class="st0" d="M384.8 272.6c6.8.6 13.4 2 20.1 2.3 9.8.4 18.4-4 27.8-5.7 8.1-1.5 19.8-.4 27.5 2.6 30.3 12.1 63.5 13.3 95.6 12.2 11-.4 21.2-3.5 31.4-7.2 9.6-3.4 17.2-9.7 25.8-14.7 5.8-3.4 12.8-6.2 19.4-7.1 8.1-1.1 16.3 1.6 24.3.7 2.7-.3 11.5-.7 12.7-3.5 1.4-3.5-2.5-3.7-4.6-4-6.1-1-13.1-1.9-19.5-3.1-6.8-1.2-13.4-3.4-20.1-5.4-6.1-1.9-12.7-2.7-18.6-5-7.1-2.8-15.1-3.4-22.6-4.5-17.9-2.6-34.9-6.7-52.3.6-12.4 5.2-18.8 16.5-30 22.9-7.4 4.2-15.9 7.7-24.4 7.8-9.5.1-19.3.7-29 .7-9.4 0-18.8.4-28.1-.4-6.4-.5-12.7-.9-19.1-1.2-3.2-.1-6.4-.2-9.6-.2-2.4 0-4.6.5-7 .3-6.7-.5-13.4-.5-20.1-.1-3.1.2-6.3.5-9.4 1v9.5c2.4 0 4.7.2 7.1.3 7.6.4 15.1.5 22.7 1.2zM396.5 297.2c9.4.4 17.6-1.4 26.7-2.9 9.4-1.6 19.5-1.6 29-.1 16 2.5 31.5 6.9 47.6 8.5 11.5 1.1 22.8 1.4 34.5 1.7h1.2c7.9.1 15.8 0 23.7-.3 3.3-.1 6.1-.7 9.3-1.3 1.7-.3 3.3-.5 5-.9 1.6-.4 2.8-.3 4.4-.4 2.5-.2 22.1-2.3 18.6-7.2-3.8-.7-9.2 1-12.9 1.8-33 6.6-68.4 1.7-101.5-3.3-19.2-2.9-36.3-9.3-56.3-9.1-9.5.1-18.7 1.7-28.1 2.6-14.2 1.3-28.4.9-42.6.7v6.2c6.7.8 13.4 2 20.2 2.5 7 .8 14.1 1.2 21.2 1.5zM376.2 353.7c10.2 3.8 21.2 5.6 32.1 6.3 9.8.7 18.4-3.5 27.9-4.7 3.4-.4 6.7-1.4 10.2-2 4.2-.7 8.4-1.2 12.5-2.2 4.2-1 8.1-1.5 12.2-3.1 2.7-1.1 5.4-2.1 8.2-3 2.5-.9 5.1-1.3 7.5-2.3 2.8-1.1 5.4-2.7 8.3-3.8 4.9-1.9 9.9-2.5 14.5-5 5.2-2.9 11.5-4.8 17-6.9 3.9-1.5 8.2-1.5 12-3 3.1-1.2 5.1-3.8 8.4-4.8 3.9-1.3 8.2-1.5 12.2-2.2 4.2-.8 8.3-1.7 12.1-3.5.1-.5.1-.9 0-1.4-4-.2-7.8 0-11.7.7-10.2 1.8-19 5.8-28.3 10-6.1 2.7-13.1 3.4-19 6.2-5.2 2.5-10.4 3.3-16 4.7-7.4 1.8-14 5.1-21.3 7.2-5.5 1.6-11.2 2.6-16.7 3.8-4.7 1-9.3 2.1-13.9 3.3-4.6 1.1-9.1 2.1-13.7 3.2-5.3 1.3-10.7 3-16.2 2.2-12.2-1.9-24-6-35.8-9.8-7.7-2.5-15.6-4.4-23.5-5.9v6.3c2.6.7 5.2 1.5 7.4 2.6 4.5 2.2 8.6 5.3 13.6 7.1zM454.4 317c-7.4 3.7-16.1 4.4-24.1 5.8-3 .5-5.7.1-8.7 1.1-1.3.5-3.1 1-4.1 2-.2.2-1.8 2.2-.8 2.3 2.4.4 4.9-1.4 7.3-1.6 3.2-.3 6.5-.4 9.7-.7 8.6-.7 17.3-.8 25.8-2.6 5.4-1.1 10.6-2.8 15.8-4.7 4.7-1.7 9.2-4.3 14-5.6.9-.2 2.5-.3 3.2-.9.7-.6 1.3-1.5.2-2.3-1.7-1.3-5.9-.5-8-.8-3.9-.5-7.7-.9-11.5-1.8-7.6-1.8-15.1-4.4-23-4.5-4.3-.1-8.2.6-12.4 1.4-6.6 1.2-12.7 4-19.2 5.3-2.7.6-5.4 1.1-8.2 1.2-4.3.2-8.7-.1-13-.1-2.8 0-5.6.2-8.3-.1-3.5-.4-6.9-.9-10.4-1.2-3.1-.3-6.2-.4-9.3-.8-1.8-.2-3.5-.9-5.3-.8-.6 0-.8-.1-1.2.4-.8 1.3 1.2 1.3 2 1.5 2.1.4 4.3.4 6.4.9 5.1 1.2 10.1 2.5 15.2 3.8.9.2 1.9.5 2.8.7 4.6 1.2 9.3 1.9 14.1 2.5 4.5.5 9 .4 13.2-1 3.3-1.1 6.4-2.6 9.6-3.6 2.5-.8 4.9-2 7.5-2.5 2.5-.5 5.2-.4 7.7-.6 5.9-.4 11.9-1.1 17.6.4 5.9 1.5-2.5 5.9-4.6 6.9z"/><path class="st0" d="M378.4 331.8c5.9 1.4 11.7 3.5 17.4 5.5 5.3 1.8 10.6 4.6 16 5.7 3.4.7 7.3-.5 10.6-1.5 3.9-1.2 8-1.8 12-2.2 7.4-.7 15.4-.3 22.5-3 2-.8 4.1-1.3 6.2-1.9 3-.8 5.9-2 8.9-2.8 2.9-.8 6-1.3 9-1.7 3.7-.4 7.1-1.8 10.7-2.7 3-.7 5.6-2.2 8.5-3.2 3.3-1.1 6.5-2.3 9.7-3.4 3.7-1.2 8-2 11.4-3.6.5-2.1-3.1-1.1-3.8-.9-3.4.7-6.8 1.6-10.1 2.2-3.1.5-6.3.6-9.1 2.2-3.7 2.2-7.7 2.6-11.9 3.5-3.1.7-6 1.6-9.1 2.6-7.5 2.5-16 4-24 4.6-6.4.5-12.7 1.1-19.1 1.9-3.3.4-6.7.6-10 1.3-2.7.6-5.6 1.6-8.4 1.2-6.6-1-13-5.3-19.1-7.6-6.2-2.4-13.2-3.2-19.7-4.3-2.9-.5-6-.4-8.8-.8-3.2-.4-6.4-2.1-9.6-2.8l-1.2-.3c-.9-.2-1.7-.4-2.6-.5v6.2c4.3 1 8.5 2.1 12.7 3.4 3.8 1.3 7.3 2 10.9 2.9zM381.6 369.9c12.3 2.3 26.9 10.2 39.3 7.4 7.7-1.7 13.8-7.3 22.1-8.8 7.8-1.4 15.8-3.7 23.6-4.8 9.8-1.5 19.4-.9 28.9-4.1 8.4-2.8 15.3-8 23.5-11.2 13.4-5.3 27.2-10.5 40.8-15 5-1.7 10.1-3 15.1-4.7 5.2-1.8 9.8-5.4 15.1-6.9 2.6-.7 5.2-1.2 7.7-1.9 2.3-.6 4.5-1.6 6.7-2.2 1.4-.4 2.9-.8 4.4-1.2.4-.1.8-.2 1.1-.4.7-.2 1.7-.8 1-1.7-1-1.5-4.9 0-6.2.4-2.8.8-5.5 2.2-8.3 2.9-11.8 2.7-23.8 3-35.6 6.2-27.1 7.4-51.5 22.5-79.2 28.3-14.8 3.1-29.6 4.2-43.9 9.3-7.5 2.7-15.3 7.9-23.4 8.4-4.9.3-10-.9-14.7-1.4-13-1.4-25.2-7.2-37.8-10.2-2.3-.5-4.5-1-6.8-1.3v8.9c1.2.2 2.4.4 3.7.5 7.7.9 15.3 2.1 22.9 3.5zM1101.1 442.3c-13.5-1.6-25.9 4.9-39.1 5.9-4.8.4-10.2-.1-12.9 4.7-2.4 4.2-4.7 9.2-8.9 12-16.2 10.9-37.7 12.6-56.6 10.1-26.6-3.6-53.2-11.4-80.1-14.5-17.1-1.9-31.2-3.1-46.7-9.6-7.4-3.1-16.9-11.5-24.8-12.1-15.9-1.1-2.7 8.9 4.2 13.4 10.5 6.9 20.5 10.5 32.4 14.8 20.4 7.4 43.8 9 65.5 13.2 15.4 2.9 31.2 1.8 46.7 3.6 12.7 1.5 23.7 5.1 36.5.8 10.4-3.5 19.7-9.7 28.2-16.4 5.6-4.4 9.3-9.3 15.8-12.3 7-3.2 11.9-6 19.6-6.7 7.1-.7 14.3-1.5 21.5-1.4 8.3.1 15.3 3.4 23.3 4.4 4.4.5 10 1.6 14.5.5 1.2-.3 2.5-1.1 1.8-2.5-1.1-2.1-5.3-1.3-7-.8-10.8 2.6-23.2-5.9-33.9-7.1zM1135.1 449.1c.2 0 .1 0 0 0z"/><path class="st0" d="M1134.8 449.2c.1 0 .2-.1.3-.1-.1.1-.2.1-.3.1zM462.8 454.9c12.3-.9 24.6-.2 36.8-1.4 11.2-1.1 22.2-3.2 33.3-5.3 8.7 0 17.4-1.5 26.1-1.5 8.6 0 17.2-.1 25.8 0 8 .1 16 .4 23.8 2 7.5 1.6 13 5.4 19.9 8.1 6.7 2.5 12.3 6.8 18.8 9.6 3.5 1.5 6.5 3.4 10.3 4.3 4.8 1.1 9.3.8 13.7 3.3 4.5 2.5 9 4.8 13.2 7.8 1.6 1.1 3.2 2.2 5 2.9.5.2 1 .4 1.5.5.8.2.7-1.1.6-1.5-.2-.5-.5-1-.9-1.4-1-1-2.2-1.6-3.4-2.3-1.1-.6-2.3-1.1-3.3-1.9 0 0-.1 0-.1-.1-5.1-4.5-11.1-8.9-17.9-10.2-7.5-1.5-16-4.7-22.2-9.2-4.6-3.3-8.5-7.1-13.8-9.4-6.3-2.7-12.8-4.8-19.4-6.4-16.8-4.2-33.1-3.8-50.2-4.3-8.3-.2-15 2.4-23 3.7-8 1.3-16.2 1.7-24.3 2.8-16.5 2.4-33.2 2.7-49.6 5.4-11 1.8-22.2.7-33.3 1.6-5.2.4-10.4 1.3-15.6 2-6.8 1-13.6 1.9-20.5 1.7-13-.4-26.1-2.6-39.2-3.8v5.1c5.3.7 10.6 1.4 16 2.1 30.6 3.8 61.3-1.9 91.9-4.2z"/><path class="st0" d="M622 412c6.4-2.5 13.5-3.3 20.5-3 8.2.3 16.5 4.3 23.5 8.6 4 2.5 7.7 5.8 11.4 8.6 3.9 3.1 7.5 6.6 11 10.2 6.9 7.2 13.1 15.1 20.8 21.5 15.4 12.9 31.6 24.9 48.3 36 8.6 5.7 15.2 14.1 23.6 18.8 10.1 5.7 21 12.7 30 20.8 6.3 5.8 12.3 12.4 19.4 17.3 6.2 4.3 13.8 7.9 19.4 12.4 19 15.2 49.8 24.3 74.1 25.6 16.3.9 32.8 3.2 49.2 4.8 6.7.6 13.1.8 19.7-.5 6-1.3 12.5-1.3 17.6-4.9 1.4-1 3-1.9 4.4-2.8 1.4-.9 2.9-1.9 4.1-3.1.3-.3.6-.5.9-.7.2-.1.7-.2.8-.5.2-.6-.4-.5-.8-.4-.8.1-1.5.4-2.2.7-.9.3-1.8.8-2.7 1.1-1.6.7-3 1.7-4.6 2.5-1.5.8-3.2 1.3-4.8 1.6-9.8 1.7-19.6 2.5-29.5 2.3-3 0-5.9-.1-8.9-.2-11.5-.5-22.9-1.6-34.3-3.5-12.8-2.2-25.8-8.8-37.5-14.1-13.7-6.1-29.3-11.3-42.3-18.9-11-6.4-20.4-9.2-29.5-18.4-9.2-9.4-20.1-17-29.5-26.2-12.3-11.9-24.6-22-39.5-30.9-22.3-13.3-40.5-32-60.6-47.8-11.4-9-25.7-24.7-40.6-28.1-10.1-2.3-21-.6-31.1.9-5.6.8-11.2 1.8-16.8 2.8l-1.5.3c-2.5.7-4.5 1.9-6.9 3.3-6.3 3.5-12.8 6.9-19.3 9.9-5.5 2.6-11.1 4.9-17.1 6.2-3.8.8-7.8 1-11.6 1.6-.5 2.4 1.7 2.8 3.6 2.6 2.2-.2 4.4-.8 6.6-1.2 3.6-.6 7.3-.8 10.9-1.8 4.7-1.3 9.3-2.8 14.1-3.8 3.4-.8 5.9-2.3 8.9-3.9 2.4-1.2 5-2.2 7.5-2.8 2.9-.7 5.6-2.2 8.6-2.5 4.7-.4 8.5 1.2 12.7-.4zM382.4 471.7c11.2-.5 22.5.2 33.7-.4 22.3-1.1 45.3.8 67.4-2.4 13.2-1.9 23.9 1 36.8 3 5.1.8 11 .9 16.2.4 10.9-1.1 21.6-2.9 32.5-4.2 23.5-2.8 48.7 5.7 70.6 13.4 5 1.8 10.2 3.2 15.4 4.4 4.3.9 8.6.8 12.8 1.8 4.5 1.1 8.7 3.1 12.8 5.2 4.9 2.4 9.9 5.4 14.2 8.8 3.4 2.7 7.4 6 11.5 7.6 1.3.5 10.1 2.7 7.8-1-.5-.7-2.7-1.1-3.5-1.4-6.9-2.6-12.6-6.1-18.7-10.3-4.9-3.4-9.9-6.1-15.3-8.7-6.9-3.3-13.9-4.1-21.2-6.1-3.4-.9-6.5-2.1-9.8-3.2-4.4-1.6-8.6-3.7-13.2-5.1-4.7-1.4-9.3-2.9-14-4.2-3.2-.9-6.4-1.9-9.7-2-3.2-.1-6.5-.5-9.6-1-5.9-1-10.7-3.6-16.3-5.1-11.2-2.8-22.9 0-34.1 1.1-9.9.9-20 1.9-29.9 3-1.2.1-2.5.2-3.8.2-2.3 0-4.5-.1-6.7-.3-2.3-.2-4.5-.5-6.8-.8-2.2-.3-4.4-.7-6.6-1-2.2-.2-4.5-.4-6.8-.4-2.3.1-4.5.3-6.8.6-2.2.3-4.5.5-6.7.6l-21 .9c-13 .5-26 .8-38.9 1.4-12.2.5-24.9 0-36.9 2.1-7.7 1.3-15 .1-22.5-1.1v4.1c1.5-.1 2.9-.2 4.4-.3 7.3-.4 15 .7 22.7.4z"/><path class="st0" d="M622.3 428.4c3.5.4 6.5.8 9.8 1.9 4.2 1.4 8.8 1.4 12.9 3.4 3.9 1.9 7.6 4.6 11.2 6.8 4.2 2.5 8.7 4.1 12.6 7.2 4.7 3.8 8.3 9 13.2 12.8 3.5 2.7 7.3 5.2 10.5 8.2 4.7 4.4 7.8 10.3 12.5 14.7 3 2.8 6.4 6.8 10 8.9 10.1 6 21.5 8.5 30.9 16.1 8 6.5 14.8 14.1 22 21.5 8.3 8.6 19 14.5 27.5 22.8 9.4 9.2 18.9 19 29.1 27.2 4.1 3.3 8.3 6.4 11.9 10.3 2.8 3.1 4.9 6.9 7.7 9.9 5 5.3 10.7 6.5 17.7 6.5 6.4 0 11.1 2 17.1 3.5 13.7 3.4 28.5 4.7 42.5 6.6 15.7 2.1 31.4 3.7 47.2 4.8 15.7 1 40.5-5.9 51.9-16.8 7.3-6.9 13.6-15 21.6-21.4 15.5-12.3 31.8-27.1 50.5-34.3 15.2-5.9 35.5-7.4 50.5.3 7.5 3.9 11.5 11.8 18.9 16 7.5 4.3 16 5.3 23.3 10.2 14 9.6 24.3 22.7 35.4 35.3 12.2 13.9 28.5 24.7 46.1 30.6 17.9 6.1 40.3 6.7 58.9 3.8 5.3-.8 10.7-1.9 15.9-3.3 6.3-1.8 12.5-4.2 18-7.8 2.7-1.7 5.2-3.7 7.3-6 1-1.1 2.2-2.1 2.7-3.5.6-1.5.8-3.2 1.1-4.7.4-1.8.7-3.9.6-5.8-.2-4.3-.7-8.1-2.2-12.2-.8-2.2-1.6-4.3-2.5-6.5-.4-1.1-.9-2.1-1.4-3.1-.7-1.4-1.5-2.7-2.4-4-1.1-1.7-1.9-3.5-3.1-5.1-8.8-12.2-20.2-22.4-32.8-30.5-8.6-5.5-17.7-9.3-26.8-13.8-10.1-5-19.7-11.6-28.6-18.4-17.1-13.1-30.1-30.9-50.8-38.7-4.5-1.7-10.3-1.8-14.3-4.6-4.1-2.9-6-4.8-11.3-5.2-10.9-.9-21.3-3.2-31.4-7.5-1.1-.5-15.9-7.2-13.4-1.8 1.3 3 6.7 3.3 9.3 3.9 5.2 1.3 9.5 4.7 14.6 6.3 20.5 6.7 40.9 10.2 59.5 21.9 17.7 11.2 30 28.3 47.5 39.7 17.9 11.7 38.4 19.8 54.9 33.5 13.9 11.6 28.6 32.7 18 50.9-4.5 7.6-14.5 9.4-22.3 10.9-10.8 2.2-21.2 2.9-32.2 2.7-20.6-.3-41.6-3.1-57.3-18.4-7.3-7.1-8.1-16-11.3-25.1-3.5-10.1-10.3-16.7-18.4-23.3-7.7-6.2-14.3-14.3-22.4-20-7.8-5.5-17.2-8-26.3-10.1-5-1.2-10.1-2.2-15.2-2.8-4.8-.5-10.2.2-14.7-1.7-4.2-1.7-7.8-1.7-12.3-.8-5.8 1.2-11.4-.6-17.3.3-19.7 2.9-37.5 21.9-51.6 34.5-7.4 6.7-14.2 14.1-21.8 20.6-3.6 3.1-7.5 6.1-11.8 8.2-14.1 7.2-31.9 6.9-47.1 7.9-17.2 1.1-34.4 3.2-51.6.9-14.9-2-29.1-3.8-43.3-8.7-49.3-16.9-86.7-60.4-126.6-92.2-8.1-6.5-16.7-9.2-25.5-14.5-8.3-5-15.2-13.3-22-20.7-13.5-14.6-29.5-25.4-47-34.5-7-3.6-15.2-4.1-22.9-5.5-3.2-.6-6.3-1.4-9.4-1.9-1.1-.1-9.1-.7-7 1.6 1 2 4.2 1.9 5.5 2.1z"/><path class="st0" d="M1088.9 464.9c-16.4 2.6-28.3 12.7-40.9 22.6-13.5 10.5-28.2 23.7-44.9 28.1-20.4 5.3-46.3 4.5-67.1 3.4-64.1-3.3-118.8-25.3-168.7-64.6-10.6-8.3-19.7-19.7-29.5-28.9-11.5-10.8-22.3-26.3-35.2-35-5.7-3.9-11.3-5.7-16.8-10.9-4.5-4.3-8.2-9-13.8-11.9-12.8-6.7-35.7.6-48.3 3.9-37 9.7-74.8 24.3-111.5 37.8-16.2 5.9-29 11.4-46.7 12-17.3.6-34.5-3.4-51.5-5.5-15.2-1.9-7.3 4.2 3.2 6.6 17.2 4.1 34 7.4 51.9 6.7 33.8-1.3 68.4-10.4 99.2-23.5 25.2-10.6 50.3-16.6 77-20 29.6-3.8 47.5 21.9 64.3 42.3 18.2 22 41 29.8 64 45.7 24.3 16.8 42.3 37.6 70.5 48.5 8.6 3.3 17.3 5.7 24.6 11.6 6.9 5.5 10.5 13.5 17.4 19 10.4 8.3 24.4 10 36.2 15.6 11.3 5.3 22.5 9 35.5 9 12.4 0 25 0 37.3.2 21.3.3 29.3-9.1 46.1-22.3 4.9-3.9 8.4-8.6 12.7-13 4.5-4.7 9.4-8.9 14.2-13.3 7.8-7.4 14.6-14.5 25-18 22.6-7.6 44.7 1.8 65.9 8.6 10.9 3.5 21.6.9 32.6 2.9 11.8 2.1 23.3 2.9 33.6 9.5 7.8 5 16.5 7.8 24.8 11.9 3.7 1.8 5.5 5.9 8.7 8.4 4.3 3.4 9.6 5.7 13.5 9.7 6.4 6.6 9.7 13.1 18 17.7 3.2 1.8 2.6 3.1.4 5.8-3.1 3.6-4.8 8-3.3 12.7 4.3 13.9 21 11.8 32.2 11.8 5.5 0 10 .4 11.8-6.4 2.2-8.4-1.1-17.6-6.3-24-6.8-8.3-18.2-15.4-27.3-21.1-9.9-6.3-20.1-11.2-28.9-19-16.6-14.6-31.4-31.9-52.5-40.5-4.5-1.8-9.3-3-14.2-3.3-5.9-.4-11.5-2.8-17.1-4.4-11-3.2-20.2-6.6-30.4-12-20.7-11.2-42.2-18.2-65.7-14.4z"/><path class="st0" d="M750.3 412.7c-8.2-8.7-14.2-18.5-23.2-26.5-8.3-7.4-18.1-14.2-27.1-20.8-3.8-2.8-7.6-5.6-11.1-8.8-1.6-1.5-3.4-2.6-5.2-3.7-1.1-.7-2.2-1.4-3.4-2-1.4-.7-2.9-1.2-4.4-1.4-.8-.1-1.4-.3-1.6.6-.2.8.4 1 1 1.4.7.4 1.4.8 2.2 1.3.7.4 1.4.9 1.9 1.4 1.4 1.4 2.6 3.3 3.7 5 1 1.5 2 3.1 3.2 4.4 1.4 1.5 2.9 2.4 4.6 3.4 3.3 2 7.3 3.7 10.1 6.5 9.2 9.1 20 16.2 28.7 25.6 6.9 7.4 13.8 14.6 21.1 21.5 6.1 5.7 12.8 9.5 18.8 14.4 3.4 2.7 5.2 7 8.5 9.8 2.9 2.4 6.9 3.4 10 5.6 7.1 5.2 12.2 10.6 20.6 14.4 15.9 7.4 32.1 16.2 48.8 21.4 8.4 2.6 16.6 4 24.4 7.1 8.9 3.5 18.2 6.4 27.5 8.3 23.3 4.8 45.3 1.9 68.1-.7 3.2-.4 6.4-.5 9.6-.5 6.2 0 12.5.3 18.7-.1 3-.2 6-.5 9-1.1 1.3-.3 2.9-.5 4.1-1.2.5-.3.8-.6 1.3-.8.6-.3 1.3-.3 1.9-.6.6-.3 1.1-.7 1.6-1.1.9-.6 2.6-1.4 3.1-2.4.3-.5.1-1.9-.5-2.1-.2-.1-.7.5-.8.6-1.9.9-4 1.3-6.1 1.7-6.2 1.4-12.4 2.7-18.8 3.4-6.5.7-13.1 1-19.6 1-13 .1-25.9-.9-38.8-2.1-16.8-1.6-35.6-3.5-51.2-9.6-17.1-6.7-35.1-8.7-52.4-15.9-24.7-10.3-44.6-25.2-66.3-40-7.5-4.9-15.7-10.8-22-17.4z"/><path class="st0" d="M809.6 429.5c-1-.6-2-1.1-3-1.7-.5-.3-1.1-.8-1.5-1.2-.5-.5-.8-1.2-1.3-1.7s-1.2-.9-1.8-1.5c-2.6-2.7-4.3-5.9-6.9-8.7-7-7.2-13.8-14-21.8-20-14-10.5-24.4-18-32.6-33.7-7-13.5-13.3-27.5-24-38.7-15.4-16.1-36-39.2-59.8-29-25.7 11-47.4 31-73.9 41.8-14.2 5.8-27.8 11.8-42.3 16.3-9.1 2.9-17.7 7.3-26.7 10.4-4.4 1.5-8.9 2.6-13.5 3.3-4.6.7-9.3 1.1-13.8 2.5-5.9 2-12.3 2.4-18.5 3.1-3.7.4-7.4.8-11.1 1.3-2.2.3-5 .4-6.9 1.5-2.1 1.3-4.2 2.7-6.5 3.6-1.2.4-4.7.7-5.4 1.8-1.2 2 3 1.4 3.8 1.3 1.3-.3 2.5-1 3.8-1.3 2.7-.5 5.6-.6 8.4-.8 8.3-.6 16.7-1.5 24.8-3.4 12.1-3 24.1-7.8 36.5-8.9 9.6-.8 19.2-2.9 28.5-5 9.5-2.2 18.9-4.8 28.2-7.8 11.5-3.8 22.7-8.1 33.8-13 14.3-6.4 28.3-18.5 44.6-19.6 19.8-1.4 31 7.4 45.1 19.7 17.2 15 33.2 32.4 50.7 47.8 5.2 4.6 9.9 9.6 14.8 14.5 4.3 4.4 9 7.4 13.5 11.4 2.7 2.4 5.2 5.1 7.8 7.7 2.4 2.4 5.7 4.2 8.7 5.8 2.1 1.1 4.2 1.9 6.3 2.8 1.1.5 2.2.9 3.3 1.3 1.9.7 3.9 1.4 5.8 2.3 1 .5 4.2 2 5 .4.2-.3 0-1.1.1-1.5.1-.3.5-.5.5-.9 0-.9-1.9-1.7-2.7-2.2z"/><path class="st0" d="M400.5 392.7c6.5.7 12.9 1.4 19.4 2.3 9.3 1.3 18.6 2.2 27.4 5.2 5.7 2 13 4.1 19.1 3.9 4.1-.1 8.8-2.3 12.6-3.7 3.9-1.4 7.7-3 11.7-4.3 8.1-2.8 16.6-4.4 24.9-7 5.6-1.7 11.6-2.1 17.3-3.4 9.6-2.2 18.7-5.2 28.6-6.2 7.1-.7 14.4-2.2 21.3-4 5.7-1.5 10.4-5.9 15.6-8.6 5.7-2.9 11.5-5.5 17.1-8.6 3.7-2 7.8-2.4 11.6-4 4.5-1.9 8.6-3.9 13.4-4.4 6.3-.5 13.4-.1 19.6-1.3.9-.2 4-1.2 2.9-3-.3-.5-5.1-.8-5.9-.9-5-.7-10.9-1.7-15.9-.9-5.2.8-10.3 2.2-14.4 3.8-9.6 3.8-18.4 9.4-28 13.3-21.1 8.6-43 9.2-65 15.1-17 4.6-34.9 6.6-51.6 11.1-30.9 8.4-65.6.6-96.7-5.2-8.9 0-18.3-4.6-27.3-5.5-1-.1-2.1-.2-3.1-.2v13.1c3.7-.2 7.4-.4 11.2-.4 11.5.1 22.8 2.5 34.2 3.8zM415.1 438.8c6 .2 12.6 2.1 18.6 1.7 3.5-.3 6.2-.8 9.8-.5 20.8 1.8 43.5 1.7 64.2-1.8 7-1.2 13.3-4.4 20.1-6 1.3-.3 2.6-.2 3.9-.3 1.3-.1 2.3-.5 3.5-.8 2.6-.7 5.2-1.1 7.7-2.1 1.4-.5 1.1-1.9 1.2-3.2-1.1-.5-3-.1-4.1.2-2.6.6-5.1 2-7.6 2.9-2.7.9-5.5 1.8-8.3 2.5-5.6 1.5-11.3 2.6-17 3.4-11.6 1.6-23.4 2-35.1 2-11.8-.1-23.6-.6-35.3-1-6.9-.2-13.8-.3-20.7-.2-20.4.3-40.7-2.2-61-3v6.1c20 .4 40.1-.7 60.1.1zM580.8 552.8c-.4-.2-.7-.5-1.1-.7-.8-.4-1.5-.8-2.3-1.2-1.6-.7-3.3-1.3-5.1-1.7-1.8-.4-3.6-.7-5.4-.9-1.8-.2-3.6-.3-5.5-.4-1.8-.1-3.5-.1-5.3-.2-.7 0-1.5 0-2.2-.1-3.2-.1-6.3-1-9.5-1-12.1 0-24.4 2-36.5 2.5-9.8.4-19.2.1-28.8-1.3-6.5-.9-12.7-1.6-19.3-1.2-7.8.5-14.5 3-21.7 5.6-10.1 3.7-19 6.2-29.7 3.2-4.7-1.3-9.1-3.6-13.8-5-4.6-1.4-9.3-1.2-14-1.3-7.1-.1-14.1 0-21.1-.4l-4.5-.3v8.4c6.9.6 13.6.5 15.5.2 7.2-1 13.6-1.7 20.7-.8 11.3 1.5 21.6 6.4 33 5.5 10.5-.9 18.9-8.5 28.7-8.5 6.1 0 14.5 1.1 20.6 2 12.8 1.8 25.7.6 38.4-1 5.9-.7 11.9-1.8 17.8-2.4 4.8-.5 9.6.6 14.4.3 1.8-.1 3.2-.9 5.1-1 2-.2 3.9.1 5.9.1 6.3 0 12.9-.4 18.9 1.7 1.1.4 2.1.9 3.2 1.2.8.2 1.6.4 2.5.4.6 0 1.9 0 1.9-.9 0-.3-.4-.6-.8-.8z"/><path class="st0" d="M718.3 591.4c-3.9-1.6-7.8-3-11.6-4.8-4.9-2.4-9.3-5.4-13.8-8.4-2.2-1.5-4.3-3.1-6.5-4.5-2.6-1.6-5.2-3-7.8-4.6-1.2-.8-2.4-1.4-3.6-2.1-16.9-9.3-35.7-16.7-54.7-20.3-22.3-4.3-44-11.1-67.1-12.3-14.7-.7-29.5 0-44.2-.8-17.5-1-34.8-4.3-52.4-4.5-24.5-.2-48.3 1.9-72.6 5-8.9 1.1-16.8 1.5-25.8.4-.8-.1-1.9-.2-3.2-.4v7.8c2.2-.2 4.5-.6 7.3-1 10.7-1.8 22.1-1.5 33-2 12.7-.6 25.6-2 38.3-2.8 10.2-.7 20.7 0 30.7.9 12.4 1.1 24.4 2 36.9 1.4 14.2-.7 28.5-1.8 42.7-.4 14.7 1.4 29.1 3.7 43.6 5.4 13.6 1.6 25.6 6.7 38.7 10.5 10.9 3.1 20.9 7.1 31.2 12 4.5 2.1 8.7 4.8 13.2 7.1 6.2 3.1 12.6 7 19.4 9.4 4.9 1.8 9.8 3.8 14.6 6 4.6 2 9.4 3.9 13.8 6.3.8.4 2.4 1.3 3.4.7 2.6-1.6-2.7-3.6-3.5-4z"/><path class="st0" d="M792.4 632.5c-1.3-1.3-2.8-2.5-4.3-3.5-1.6-1.1-3.3-2.2-5-3.3-1.3-.8-2.6-1.6-3.9-2.5-.2-.1-.3-.2-.5-.4-17.5-14.7-35.4-28-54.8-40.1-20.7-12.9-42.1-26.2-63.7-37.4-12-6.2-24.8-8.7-37.4-13.3-5.7-2.1-11.4-4.5-17.2-6.2-8.5-2.5-17.3-3.8-26.1-5.3-10.1-1.8-20.4-1.4-30.7-1-9.6.3-19.2-.1-28.8.5-11.4.7-21.7-3.4-32.7-5.9-4.7-1.1-8.7-1.1-13.5-.7-5.1.4-10.3-.9-15.3-1.3-11.4-1-21.9 0-33.2.6-6.8.4-13 .7-19.7 2.1-6.6 1.4-11.8-.8-18.3-1.1-7.5-.3-14.8 2.6-22.2 3.4-3 .3-6.1.8-9.1 1h-1v4.4c6.5.5 13.1 1 19.6.8 11.6-.3 22.9-3.6 34.3-5.3 5.7-.8 11.3-.4 17-.8 6.5-.5 12.9-1.4 19.4-1.3 13.9.1 27.1 5.4 41 6.5 15.6 1.2 30.6 2.8 46.3 2.7 16.4-.1 32.9.8 48.8 4.7 23.1 5.7 47.2 10 69.4 18.8 15.7 6.2 30.4 15.3 45.3 23 16.4 8.5 31.6 19.1 46.6 29.8 3.6 2.6 7.2 5.1 10.8 7.6 7 4.9 13.1 10.8 19.7 16.2 1.9 1.5 3.7 3.2 5.6 4.7 2 1.6 4 3.1 6.3 4.3 2.2 1.1 4.6 1.9 7 2h.9c.3 0 .6 0 .8-.2.5-.5.1-1.5-.2-1.9-.2-.5-.7-1.1-1.2-1.6z"/><path class="st0" d="M834.2 646.8c-1.5-.9-2.9-1.9-4.3-2.8-1.2-.7-2.1-1.7-3.1-2.5-1.3-1-2.8-1.8-4.2-2.7-2.7-1.8-5.4-3.6-8.2-5.3-9.6-5.9-18.2-14.7-26.6-22.2-7-6.3-12.5-14.1-19.2-21-8.6-8.8-18.8-16-28.8-23.2-10.5-7.5-21.9-14.7-32.9-21.5-7.5-4.6-16-7.4-23.7-11.6-15.5-8.4-28.5-19.3-45.1-25.6-14.9-5.6-29.9-7.5-45.9-6.8-18.6.8-37.7 4.6-56.4 1.9-9.5-1.4-17.7-4-27.3-4h-30.7c-22.7 0-45.1-5.3-67.7-5.5-18.5-.2-36.7 1.8-55 2.7v4.7c6.8-1.2 13.6-2.3 20.6-2.7 8.9-.6 18.4-2.3 27.3-2.1 15 .3 30.3 4.2 45.4 5 13.9.8 27.7 1.6 41.5 2.6 7 .5 13.9-.1 21-.1 11 0 20.8 4.3 31.7 5.7 25.3 3.2 50.7-6.5 75.9 0 12.3 3.2 25.4 7.8 35.2 16.1 1.9 1.6 3.7 4.5 5.9 5.7 3.2 1.7 7 1.6 10.3 3.2 6.2 3 11.2 7.5 17.4 10.1 7.6 3.2 14.3 7.5 21.5 11.3 7.7 4 15 8.5 21.2 14.5 5.3 5.3 12.4 7.8 18.4 12.1 5.5 3.9 9.8 9.4 15.5 13.4 4.8 3.4 9.3 5.6 13.2 10 4.1 4.6 8.7 8.8 13.4 12.9 2.7 2.3 5.1 4.9 7.5 7.4 2.8 2.9 5.7 5.9 8.6 8.7 2.7 2.6 5.5 5.3 8.8 7.1 1.5.8 3.1 1.5 4.7 2.3 2 1 4.1 2 6.1 2.8 1.8.7 3.4 1.5 5.3 2.1.9.3 1.8.4 2.8.5.9.1 3.6.3 2.5-1.5-.4-.8-1.7-1.2-2.6-1.7z"/><path class="st0" d="M855.9 645.5c-13.9-6.1-23.2-17.1-35.7-25.4-14.2-9.5-27-21.6-37.8-34.7-3.8-4.5-7.2-9.2-11.3-13.5-3.4-3.5-6.2-7.9-9.6-11.6-3.2-3.6-6.8-7.1-9.7-10.9-6.1-8-14.3-12.6-22.9-17.1-5.2-2.7-10-6.5-14.7-9.9-6-4.4-12.7-6.7-19.4-9.8-7.2-3.3-14.4-6.5-21.7-9.7-3.2-1.4-6.1-3.1-9.1-4.8-2.7-1.5-6-1.3-8.9-2.3-3.4-1.2-6.6-2.7-10-3.9-10-3.4-21.6-4.6-32-5.7-19.6-2.2-39.3-5.3-59.1-5.3-10.4 0-21-.3-31.4.5-6.3.5-12.7.3-19.1.3-12.7 0-25.4 1.3-38.1 1.8-7.7.3-15.4.4-23.2-.1-11.5-.7-23.1-1.1-34.6-1.3-10.5-.2-21.3.6-31.7-.3-5.8-.5-11.7-1.1-17.5-1.5-1.1-.1-2.1-.2-3.2-.3v6.5h13.2c9.2 0 18.5-.3 27.7 0 8.6.3 17 1.1 25.6 1 10.5 0 21.6-.8 32.1.3 9.9 1 20.6 2.5 30.6 1.1 8.4-1.1 17.1-1.5 25.6-2.2 7.6-.6 15.1.6 22.6.3 7-.3 14-1 21-1.2 5.4-.2 10.9.4 16.4.8 12.9 1 25.8 2.5 38.6 3.9 5.5.6 11.3 1 16.7 2.2 3.6.8 6.8 2 10.2 3.3 3 1.1 6.5 1.1 9.3 2.6 2.4 1.3 4.7 3.1 7.1 4.5 5.8 3.3 11.6 6.9 17.7 9.6 17.6 7.7 36.1 11.2 51.7 23.1 6.3 4.8 14.1 8 20 12.7 4.7 3.8 8.9 9.2 12.2 14.2 3.6 5.4 6.3 11.2 10.6 16 3.1 3.5 6.6 6.3 9.7 10 5.7 6.9 12.4 11.4 19.2 17 6.8 5.5 13 11.7 19.7 17.4 12.8 10.9 27.5 20.4 42.6 27.6 6.5 3.1 15.2 9.5 22.8 8.5 1.4-6.1-18.2-11.9-22.2-13.7z"/><path class="st0" d="M1075.9 594.9c1.7-.5 3.3-1 5-1.3.3 0 .5-.1.8-.1.9-.1 1.9-.1 2.9-.1h2.5c.7 0 1.4.2 2.2.3 1.4.2 2.9.3 4.3.5.5.1.9.3 1.4.5.7.2 1.5.3 2.2.5 5.5 1.2 11.1 1.6 16.7 2.5 12.2 2.1 24.4 5 36.4 8.1 22.9 5.8 43.7 15.1 63.9 27.3 17.4 10.5 36.2 27.8 56.9 29.7 10.9 1 21.1 4.9 31.9 5.7 11.5.8 23.1 3.3 34.6 3.7 9.7.3 19.7 1.1 28.6-3.1 9.4-4.5 17-12.9 21.8-22 9.8-18.9 5.6-43.1-3.8-61.3-8.8-17.1-23.4-30.8-38.5-42.5-17.7-13.7-39.3-19-58.3-30.1-9.6-5.6-17.3-13.4-26.8-19.1-2.1-1.2-4-2.6-5.7-4.3-1.8-1.9-2.1-5.1-4.1-6.7-1.7-1.4-8-3.8-7.3.6 1 6.5 11.7 12.4 16.5 15.7 10.2 6.9 18.8 15.7 29.5 21.9 10.2 5.9 21.8 8.8 32.4 13.9 10.2 4.9 19.9 10.9 28.6 18.1 4.9 4 9.7 8.3 14.2 12.8 4.7 4.8 9.1 9.9 12.9 15.6 3.6 5.4 6.5 11.3 8.1 17.6.3 1.3.6 2.7.8 4 .3 1.7.3 3.4.7 5.1.2 1 .6 1.8 1 2.7 2.5 5.9 2.6 12.8 1.1 19-1.4 6.2-4.5 12-8.5 16.9-3 3.7-6.6 7-10.5 9.7-3.9 2.7-7.7 6.5-12.3 8-4.9 1.5-10.2 1.3-15.3 1.3-13 .1-25.8.2-38.7-1.7-21.8-3.2-45.2-7.6-63.8-19.9-13.1-8.6-25.4-18.1-39.3-25.4-10.3-5.4-21.5-12.1-32.8-15-10.4-2.7-20.9-4.6-31.3-7.6-11.6-3.4-22.6-6.7-34.6-8.7-4.7-.8-8.8-3.7-13.4-4.2s-8.3 1.4-12.4 3.2c-10.1 4.4-20.9 8.7-29.5 15.9-7.5 6.4-12.1 15.2-17.8 23.1-8 11-20.5 17.5-33.8 19.5-14.8 2.2-35.6 3-50.4-.4-26.2-6.1-52.6-9.1-78.4-17.5-26.3-8.7-49-30.4-69-49.2-16.1-15.1-27.9-34.1-45.1-47.9-1.2-1-2.4-1.9-3.6-2.9-4.7-3.7-9.5-7.4-14.8-10.2-2.5-1.3-5.2-2.5-8-3.1-.9-.2-6.7-1.4-6.7.3 0 .5 0 1.2.5 1.6 1.8 1.3 5 1.2 7.1 1.8 3.1.8 6 2.1 8.9 3.2 2 .7 3.8 2.1 5.5 3.5 4 3.3 7.7 7.1 11.1 11.1 5.7 6.7 9.9 14.6 15.7 21.2 3.8 4.3 8 7.8 12.2 11.6 5.8 5.1 10.6 12.1 15.7 17.9 7.9 9.1 18.5 18.2 28.2 25.2 5.5 4 11.4 7 17 10.8 8.8 5.9 19.9 8.1 29 13.6 5.5 3.4 12.2 5.1 18.1 7.8 7.8 3.5 15 9 23.3 11.4 6.1 1.7 11.9-.5 18.1-.9 9.1-.6 18.4 2 27.4 2.8 9.6.8 19.9 1.9 29.6 1.4 8.3-.4 16.5-1.4 24.9-1.4 7.7 0 13.4-3.1 15.6-10.4 1.8-6 4.1-12.4 7-17.9 1.6-3.2 3.6-6.1 5.7-8.9 2.2-2.9 4.7-5.6 7.4-8.1s5.6-4.8 8.7-6.9c3.1-2.1 6.3-3.9 9.6-5.5 3.4-2.1 6.8-3.4 10.3-4.3z"/><path class="st0" d="M1146.2 686.2c-.7-.2-1.5-.3-2.2-.5l-2.1-.3c-.6 0-1.2-.2-1.7-.3-.6-.1-1.2-.2-1.7-.3-1.2-.2-2.3-.5-3.4-.9-1.1-.3-2.3-.5-3.4-.7-1.2-.2-2.3-.4-3.5-.5-2.3-.3-4.6-.6-7-.8-2.3-.3-4.7-.5-7-.9s-4.7-.9-7-1.5c-8.6-2.4-22.7 3.2-29.3-4.6-5.3-6.2-7.9-16.2-4.9-23.9 3.9-10.1 13.7-14.4 23.4-17.3 10.3-3.1 21.3-3.2 32-4 5.3-.4 10.8-.6 16 .7 6.4 1.5 11.4 3.8 18.1 4 21.9.7 45.8 11 64.4 22.1 19.3 11.5 40.2 21.8 62.8 24.9 11.2 1.5 22.5 1.9 33.6 3.9 11.5 2 22.4 5.3 33.7 8.1 8.6 2.2 19 3.3 27.4-.1 8.8-3.5 13.8-11.4 17.9-19.5 4.6-9.3 8.1-19.3 9.7-29.6.8-5.2 1.1-10.5.8-15.8-.2-5.4-2.7-10.5-3.1-16-1.3-17.2-11.8-35-22.3-48.2-6.2-7.8-13.4-14.7-20.7-21.4-6.1-5.7-13.6-12.9-20.8-17.1-18.1-10.6-35.1-23.5-52.8-34.7-17.2-10.8-34.7-23.7-53.7-31-18.8-7.2-39.5-6.7-58.9-11.6-20.1-5.1-39.2-12.1-58.7-18.9-20.5-7.2-39.5-10.2-61.1-5.5-7.7 1.7-16.4 5.1-22.8 9.9-9.5 7.1-19 5.4-29.8 6-11.6.7-22.6 5.5-34.4 5.7-16.3.2-32.3-2.4-48.6-4.1-35.8-3.8-64.8-21.6-93.9-41.3-18.6-12.6-35.9-23.8-49.3-42.6-7.8-10.9-12.8-21.8-19.8-32.8-8.6-13.4-19.8-25-29-37.8-9.1-12.6-12.9-17.8-29.2-19.8-13.6-1.7-27.9-2.3-41 1.6-4.4 1.3-8.7 2.6-13 4.1-6.2 2.1-12.3 4.4-18.3 7-2.9 1.3-5.9 2.6-8.6 4.3-2.8 1.8-5.8 3.1-8.7 4.8-1 .6-2.1 1.1-3.1 1.7-1.9 1.3-3.7 3-3 5.4.6 1.9 1.3 1.1 2.8.7 2.1-.5 4.2-.5 6.3-1 2.2-.6 4.2-1.3 6.2-2.2 2.8-1.2 5.7-1.6 8.6-2.7 3.3-1.2 6.4-2.9 9.6-4.5 5.7-2.9 12.1-5.2 18.2-7.3 6.3-2.1 12.9-3.7 19.6-4 41.4-1.8 58.6 48.5 77.4 77.5 21 32.4 60.7 51.4 89.7 74.8 12.2 9.8 23.4 17.9 38.5 23.2 8.2 2.9 14.9 3.3 23.7 2.9 20.5-1.1 41.1-2.7 61.7-3 20.8-.3 34.6 3.7 54.9-4 13.6-5.2 25.4-14 39.1-19 20.7-7.5 41.4.4 60.9 7.9 22.4 8.7 45.8 15.7 69.4 20.7 10.7 2.3 21.7 3.5 32.3 6.7 10.7 3.3 20 8.5 29.4 14.3 38.2 23.7 80.5 41.5 112.6 73.8 14.5 14.6 28.4 31.9 34.3 51.9 3.1 10.2 3.4 20.6 2.6 31.2-.8 10.7-1.5 21.6-5.4 31.6-.7 1.7-1.4 3.7-2.7 5-4.5 9.2-9 14.7-19.6 16.8-10.5 2.1-22.3-1.7-32.8-2.6-11.6-1.1-22.8-5.1-34.5-6.2-11.9-1.1-23.7-1.5-35.2-5.4-9.9-3.4-20.2-6.3-29.8-10.5-10.6-4.6-19.9-11.8-30.3-16.9-21.1-10.3-43.1-18.7-66.5-21.5-22.4-2.7-44.6-2.9-66.2 4-7 2.2-19.1 7.5-21.6 15.4-1.2 3.8-4.5 7.2-5 10.9-.9 6.2.9 12.5 2.3 18.5 2.3 9.5 12.7 12.5 21.6 12.3 12.2-.3 24.6-.5 36.8 0 5.9.3 11.8.8 17.7 1.8 4.1.7 8.4 2.3 12.6 2 4.2-.2.4-2.5-1.2-3z"/><path class="st0" d="M1334.1 799.1c-.7-.3-1.4-.7-2.1-1.1-8.1-6.4-12.1-15.6-21.7-20.7-10.2-5.4-21.7-7.2-31.7-13.3-4.2-2.5-8-5.8-12.3-8.2-4.1-2.2-9.3-2.1-13.8-2.3-10.1-.5-16.8-4-23.4-11.7-5.8-6.8-10.3-14.6-15.9-21.5-7.1-8.8-15.1-16.8-23.6-24.2-7.7-6.7-15.8-13.2-24.3-18.9-4.8-3.2-21-13.3-7.5-17.6 3.9-1.2 8-.3 12-.4 5.1 0 10.1-.7 15.2-.3 11.3.8 22.2 4.1 32.5 8.8 9.8 4.4 18.8 10 28.8 14 10.7 4.2 21.9 7.2 33.2 9.3 22.1 4.1 44.4 4 65.6 12.1 4.6 1.7 9.6 3.5 13.7 6.2 4.5 3 9 2.9 14.3 3.5 4.6.5 9.1 2 13.7.7 5.8-1.7 11.4-5.3 16.5-8.6 18.4-11.9 22.6-37.7 22.3-57.9-.1-5.6-.3-11.2-.1-16.8.2-5.3 1.3-9.3-1.1-14.2-2.1-4.5-2.6-9.4-3.6-14.2-1.2-6-4.1-11.2-7.1-16.5-2.5-4.5-4.9-9-7.1-13.7-1.8-4-5.2-6.4-7.7-9.9-6.6-9.2-13.6-17.9-22-25.5-17.1-15.5-36-29.6-55.4-42-19.8-12.7-35.8-29.8-54.8-43.4-16.9-12-35.4-16.9-55.9-17.5-22.9-.7-46.7-4.4-68.3-12.1-18.5-6.6-36.9-19.3-57-20.3-15-.8-31.4 8.1-44.8-1.4-7-4.9-7.9-10.5-5-18 2.6-6.7.9-15.8 2.5-23 3.9-17.5 8.5-36.1 15.2-52.8 3.6-9 6.3-18 8.9-27.3 2.5-8.8 6-17.6 6.9-26.8 1.7-17.6-5.2-36.1-.9-53.6 2-8 4.7-14.2 4.7-22.6 0-9.1 4.2-15.6 8-23.7 7.2-15.3 16.2-35.6 15.3-52.8-.5-9.3-2.2-18.1-.8-27.5 2.2-14.8 6.2-27.2 10.9-41.3 2.5-7.5 3.6-16.7 2.2-24.9h-9.2c0 5.9.6 11.9 0 17.7-1.3 13-6.5 25.9-9.2 38.6-2.6 11.9-1.9 24.1-1.2 36.2 1.5 24.7-13 44.7-20.1 67.4-3.2 10.1-3.1 20.7-3.8 31.2-.8 12-2.5 23.1-2 35.2.4 10.8 1.2 22.6-1.4 33.1-2.9 11.9-8.2 23.7-12.2 35.3-7.9 22.9-16.9 45.9-22.6 69.5-2.5 10.4-4.4 21.7-3.8 32.4.6 11.4 8 13 18 12 5-.5 10-.6 14.9-1.8 5-1.2 9.2-3.5 14.5-3.6 12.4-.4 23.1 0 34.8 4.4 10 3.7 19.7 8.1 29.7 11.8 11.2 4.1 22.5 6 34 8.8 11 2.7 21.7 6.3 33.1 7.1 12.8.8 24.6 1.3 37.1 4.9 10.1 2.9 19.2 6.7 27.8 12.9 8.5 6.2 16.1 13.5 24.9 19.4 8.6 5.8 16 13.2 24.4 19.3 8.1 5.8 18.3 9.4 24.6 17.5 6.4 8.3 12.9 12 22.4 16.3 4.3 2 8.2 7 11.5 10.4 4.4 4.5 8.5 9.2 12.5 14 14.2 17 27.1 36.1 31 58.3.8 4.6 1.5 9.3 2.4 13.9.4 2 1 3.9 1.4 5.9.4 2.4-.8 4.1-.6 6.5.3 5.6 1.7 7.5-.4 12.9-2 5.2-1.5 11.6-2.6 17.1-3.7 20-13.7 35.9-36 35.6-10.7-.2-21.1-1-31-5.2-11.3-4.7-23.3-7.3-35.2-9.3-22.3-3.8-45.2-4.5-66.5-12.8-21.3-8.4-39.7-21.2-62.6-25.7-10.5-2-21.3-3.3-32-2.9-9.4.3-22.6-.4-30.3 5.7-2 1.6-5.9 4.5-5.2 7.5.5 2.1 7 5.4 8.7 6.6 4.3 2.9 10 3.4 14.7 5.3 5.7 2.3 11 5.3 16.4 8.3 9.1 5.2 19.4 9.5 27.1 16.7 8.1 7.6 16.2 15.3 23.2 23.9 6.3 7.7 10.5 16.3 16 24.5 6.6 9.9 15.6 7.8 26 8.5 9.5.7 18.9 6.2 27.2 10.6 8.2 4.4 8.5 16.1 19.1 18 4.2.8 8.5.5 12.6 2.1 4.4 1.7 7 4.9 10.4 8 3.4 3.1 6.8 5.1 11.1 6.6 5.1 1.7 6.4-.4 1.9-2.7z"/><path class="st0" d="M1339.6 776.4c-2.9-2.3-7-2.5-9.6-5.3-2.6-2.9-3.6-6.9-5.1-10.4-2-4.3-5-5.1-9.2-6.2-5-1.3-8.9-5.7-12.5-9.3-6-6-14.1-4.5-22.1-4.5-10.4.1-19.9.8-29.3-4.5-10.3-5.8-18.5-17.6-25-27.4-2.4-3.6-8.4-11.5-6-16.3 1.8-3.4 7.1-.4 9.5.6 6.4 2.4 13.2 3.9 19.9 5.1 28 5.2 57 1.6 84.5 10.4 4.6 1.5 6.3 6.3 11 7.5 6.7 1.7 12.6 5.6 19.1 7.8 1.4.5 2.8 1.3 4.2 1.8 2.3.8 4.5 1.5 6.8 2.2 1.4.4 2.7.9 4.2.9 1.2-.1 2.1-.9 3.2-1.5 1.2-.7 2.3-1.1 3.7-1.2 4.3-.4 8.7 1.1 12.9-.4 1.3-.5 2.7-1.1 3.9-1.8 5.4-3.2 11-6.5 15.7-10.8 4.7-4.3 8.6-9.3 12-14.6 3.8-5.8 3.8-11.8 5.4-18.3.5-2 1.1-4 1.6-6.1.5-2.1 1-4.2 1.3-6.4.3-2.1.5-4.3.4-6.4 0-.9-.1-1.8-.2-2.7-.2-1.3-.4-2.7-.5-4-.3-2.2-.6-4.5-.9-6.7-.3-2.2-.5-4.5-.8-6.7-.2-2.2-.5-4.5-.7-6.8-.2-2.3-.4-4.5-.6-6.8 0-.6-.1-1.1-.1-1.7-.4-5.3-2.3-9.6-3.4-14.8-1.2-5.7-2.2-11.5-3.6-17.2-5.3-20.9-17.6-35.9-29.4-53.3-5.8-8.5-14.3-14.5-21.6-21.6-8.4-8.2-16-17.3-24-26-7.6-8.4-14.5-17.5-22.5-25.6-8-8.1-15.8-15.2-21.9-24.9-5.3-8.4-9.7-17.4-15.3-25.6-6.2-9.1-16.1-13.9-23.1-22.1-6.9-8.1-15.6-11-23.8-17.4-8.8-6.9-17.8-13.2-26.2-20.7-17.3-15.5-33.9-31.4-49.9-48.2-11-11.6-19.8-20.5-23.1-36.3-1.8-8.7-4.9-20-4-29.2.9-9.3 5.8-17.9 9.1-26.4 10.2-25.9 31.5-44 42.3-69.8 2-4.7 4.3-9.2 5.8-14.1 2-6.5 2.2-13.3 3.4-20 1.3-7.1 2.2-14.5 4.1-21.5 1.7-6.5 5.7-12.3 6.3-19.1l.9-9.9c.2-2.6 0-5.2.3-7.9.9-7.6 1-15.4 1.8-23 .7-6.3 1.4-12.4 1-18.7-.1-1.3 0-4.7-.5-7.1h-19.2v.1c-.2.8 0 1.9 0 2.7-.3 6.7-1.7 13.5-2.1 20.2-.4 7.1-1.4 14.3-1.7 21.4-.2 6.1-.5 12.3 0 18.5.5 6.8 1.5 13.6.7 20.4-1.8 15.5-4.7 32-9.9 46.5-4.6 12.7-8.4 25.6-14.4 37.7-9 18.1-21.1 32.3-34.2 47.7-6.6 7.7-6 21.5-5.5 31 .5 10.3 1.6 21.1 7.5 29.8 5.6 8.3 13.2 14.3 19.7 21.8 7.4 8.5 15.7 15.9 23.2 24.1 6.2 6.8 9.8 15.5 16.7 21.8 8.1 7.4 17.6 13 25.7 20.5 3.9 3.6 7.5 7.7 11.8 10.7 4 2.8 8.5 4.6 12.7 7 9.3 5.3 17.1 12.8 25.1 19.9 17 14.9 26.2 37.8 40.5 55.1 12.1 14.7 26.1 27.1 39.3 40.6 5.9 6.1 9.5 13.9 16.7 18.7 8.2 5.4 14.3 11.4 20.3 19.2 5.5 7.2 10.7 14.5 16 21.8 2.3 3.2 5.3 5.9 7.3 9.3 2.5 4.3 2.6 9.5 4.6 14 7 16.2 11.3 31.8 13.3 49.5 2.2 19 .9 37.5-4.3 56-4.3 15.1-19.1 26.1-33.9 30-16.3 4.2-31.6-4-45.2-11.6-7.8-4.4-16.6-6.4-25.4-8-2.7-.5-5.5-.3-8.2-.9l-3.3-.6c-1.3-.3-2.5-.7-3.8-1-1.3-.2-2.5-.3-3.8-.4-9.1-.3-18.2.6-27.2-.1-12.4-.9-25.2-4.2-37.1-7.6-8.5-2.4-16.8-5.5-25.1-8.5-2.3-.8-5.8-2.3-8.3-1.4-3.7 1.4 1.2 7.3 2.2 9 11.9 18.9 23.1 37.3 40.6 51.3 1.3 1.1 3.3 1 4.3 2.5s1.3 2.8 3.3 3.3c4 1.2 8.2-1.9 12.3-2.3 9.2-.8 21.5-3.7 29.7 1.7 4.1 2.7 6.9 7 10.2 10.5 3.9 4.1 8.4 7.7 12.3 11.8 3.1 3.3 6.9 5.8 11.1 7.6.6.2 10.1 2.7 6.1-.4z"/><path class="st0" d="M1271.4 718c1.1-.3 2.2-.4 3.2-.5.5-.1 1-.1 1.4-.2.2 0 .5-.1.7-.1.7-.2 1.4-.4 2.1-.5 2.1-.5 4.3-.9 6.4-1.2 2.2-.3 4.4-.5 6.6-.7 2.2-.2 4.4-.2 6.7-.3l6.6-.3c.6 0 1.1-.1 1.7-.1 4.8-.3 10.4-1.6 15.1-.6 1.2.3 6 2.9 6.8 1 .7-2-11.6-4.4-12.9-4.7-9.2-2.1-15.9-2.3-24.9.6-8.4 2.7-20.5 2.1-29.1 1.2-2.3-.2-5.5-2.2-7.8-.8-2.9 1.8.8 7.1 1.9 8.8 4.3 6.6 9.9 10.3 17.6 11.5 9.1 1.4 18.2 2.9 27.3 4.3.6.1 1.8.5 2.3.1 2-1.2-2.1-3.4-3-3.7-2.2-.9-4.5-1.4-6.8-1.8-4.3-.8-8.7-1.1-13-1.9-.3-.1-.7-.1-1-.3-3.2-1.4-7-3-9.3-5.7-.6-.7-1.4-1.8-.9-2.7.5-.9 1.5-1.2 2.3-1.4z"/><path class="st0" d="M1463.2 809c-1.3-.3-2.8-.3-4.3-.1-3.6.5-7.6 2-10.7 2.2-9 .7-21.4 1.1-29.4-3.7-4.3-2.6-7.9-6.4-12.1-9.2-3.6-2.4-7.6-3.4-11.5-4.9-4-1.5-7.8-3.2-11.5-5.3-7.6-4.2-14.4-9.9-19.7-16.8-7-9.1-14.8-16.2-23.6-23.5-1.9-1.6-7-5-6.5-8 .7-4.2 11.2-2 13.6-1.5 5.6 1.4 10.2 4.3 15.2 7 5.8 3.2 13.2 2.3 19.6 2.3 13.4 0 27.5-4.1 38.7-11.5 10.7-2 18.3-10.5 24.4-19 1.8-1.5 3.4-3.2 3.8-5.6 13.5-21.2 10.2-47.8 6.6-71.4-1.8-11.5-5.6-22.4-10.3-33-2.4-5.4-4-10.8-5.8-16.4-.5-1.4-6.1-13.3-8.7-9.4-1.4 2.1 4.3 9.6 5.1 11.8 2.1 5.8 3.8 11.8 5.4 17.7 3.3 11.5 8.5 23.5 10.5 35.3 1 6.5.1 13.3 0 19.8-.1 6.6 1.1 13.3.7 19.9-.6 11.6-5.9 24.3-13.8 32.8l-3.1 3.1c-6.4 6-14.8 8.4-22.3 12.5-8.1 4.4-13 7.3-22.5 6.9-7.7-.3-16.1 1.2-23.6-.4-7.8-1.6-13.8-7.2-20.6-10.8-7.8-4.1-14.5-7-23.5-6.6-3.1.1-14.4-.8-15.9 2.7-1.1 2.4 3.9 2.8 5.1 3.5 3.2 1.8 5.4 4.8 8 7.2 6.5 6.1 13 12.3 19.8 18.1 6.8 5.7 13.7 10.7 19.7 17.2 5.7 6.2 10.7 13.2 16.5 19.3 5.3 5.6 13 11.3 20 14.5 6.6 3 13.6 7.6 20.7 9.1 13.7 3 32.6 5.9 45.6-1.2 2.4-1.4 4-3.7.4-4.6z"/><path class="st0" d="M1503.7 797.2c-4.8-.2-9.6-.2-14.3-.5-12.1-.9-22-3.3-33.3-7.7-7.7-3-18.3-10-13.8-20.1 2-4.6.6-9.1 1.2-13.9.7-6.1 2.3-12 4.9-17.6 8.4-17.6 26.3-30.3 23.4-51.5-.6-4.6.7-8.2.9-12.7.2-5.6-1.1-11.1-2.4-16.5-1-4.3-2-9-3.8-13-.8-1.7-1.5-2.4-1.6-4.4-.1-1.8.2-3.6-.2-5.4-1-4.1-1.5-8.4-1.7-12.7-.2-5-3.4-8.8-5.9-12.8-.6-.9-1.3-3-2.3-3.6-1.6-.9-2.9.5-3.2 1.9-.5 2.5.9 6 1.5 8.5.8 3 1.9 5.9 2.8 8.8 2 6.2 4.3 12.2 6.5 18.3 7.5 20.9 7 46.5-3.5 66.2-4.6 8.7-12.5 16.2-15.9 25.5-3.6 10-6.6 22.9-7.2 33.5-.8 12.4 6.9 21.8 17.3 27.5 6.2 3.4 13.1 5.6 20 7.2 3.8.9 7.8 1.9 11.7 1.3 4.7-.7 9.4.3 14.2-.6 2.7-.5 5.3-1 8-1.1 1.7 0 4.7.3 5.5-1.5.2-.4.2-.7.2-1-.6-2.5-7.7-2.1-9-2.1z"/><path class="st0" d="M1522 787.7c-10.8-2.4-21.1-5.6-30.8-11.2-7.3-4.2-17-10-18.2-19.4-1.4-11.1 1.7-22.8 6.4-32.8 9-18.8 9.7-44.2 6.8-64.6-3.3-22.7-14.1-44.4-22.6-65.4-1.7-4.3-4.8-7-7.7-10.4-2.9-3.3-4.9-7.2-8-10.3-7.4-7.4-17.1-11.1-23-20.1-5.8-8.8-12.1-16.4-18.9-24.4-6.7-7.9-10.7-16.9-19.6-23-8.5-5.8-14.1-12.2-21.2-19.5-7.7-7.9-16.5-17.2-21.8-26.9-4.7-8.6-10.6-16-16.9-23.4-1.4-1.6-7.2-4-7.3-.2-.1 5.2 5.2 6.8 8.6 9.6 7.9 6.3 12 15.7 17.7 23.8 5.9 8.3 13.3 16.5 20.2 24.1 15.6 17.2 32.9 32.4 46 51.9 5.4 8 10.7 15.4 17.2 22.5 6.6 7.2 16.4 9.5 22.8 16.9 3 3.5 4.9 7.9 7 12 2.2 4.3 5.3 8 7.8 12.1 5.8 9.5 7.5 20.7 10 31.4 5 20.5 10.2 48.7 1.9 69-3.5 8.5-10.2 16.2-12.7 25.1-2.7 9.5-4.4 21.3-1.7 30.9 2.5 8.7 7.8 16.9 17 19.1 11.4 2.7 23.2 5.3 34.8 6.9 4.8.6 9.6.9 14.3 1.7 1.8.3 3.5.7 5.2 1.4 1.6.7 3.7 2.5 5.6 2.2.8-.1 1.1-.4 1.2-1 0-.2 0-.4.1-.6.2-4.5-16.9-6.7-20.2-7.4z"/><path class="st0" d="M1558.1 787.9c-1.9-2.5-3.8-5.6-6.4-7.4-2-1.4-4.1-2.6-6.4-3.4-2.4-.8-4.8-.8-7.3-1-5.4-.5-10.9-1-16.1-2.6-8.2-2.5-16.1-5.9-23.5-10.3-2.5-1.5-5.4-3-7.1-5.3-1.6-2.1-2.5-5-3-7.5-1.2-5.3-.8-11.1 1.3-16.1 1-2.5 1.3-4.5 1.9-7 .5-2.5 1.9-4.7 2.5-7.1.8-3.3 1.2-6.6 2.1-9.9.9-3.1.7-5.9 1-9.2.6-6.8 2.2-13.6 1.2-20.4-.8-5.5-2.5-11.1-3.2-16.7-.3-2.7-.7-5.2-1.4-7.9-.3-1.2-.3-4.7-1.6-5.4-3.8-2.1.7 11.9 1.1 13.5 2.9 12.2 2.3 26 .2 38.3-2.1 12.4-6.1 24-9.6 36-1.8 6.3-2.6 13.1-.7 19.5 1.3 4.3 3.6 6.3 6.7 8.7.5.4 1 .7 1.5 1.1 6.2 4.9 13.3 6.8 20.7 9.1 4.5 1.4 9.2 2.1 13.8 2.6 2.2.2 4.5.2 6.7.5 2.3.4 4.5 1.3 6.8 1.9 2.6.7 4.8 1.6 7.1 2.8 1.8.9 3.4 1.7 5 2.9 1.4 1 2.5 2.3 3.7 3.5 1 .9 3 3 4.5 3 1.3 0 1.2-1.2.8-2.2-.3-1.3-1.4-2.8-2.3-4z"/><path class="st0" d="M1594.6 788.2c-.8-1.7-1.7-3.3-3-4.8-3.2-3.8-8.8-5.6-13.3-7.5-11.2-4.7-18.8-14.8-30.3-18.6-10.3-3.5-17-10-22-19.5s-7.4-18.1-7.8-28.9c-.2-6.2-.7-12.4-.8-18.6-.1-6.4 1.1-12.9.8-19.3-.6-12.6-3.2-26.5-6.9-38.5-1.4-4.6-3.1-9.2-4.4-13.9-.1-.6-2.8-9.6-4.2-7.9-1 1.2 2.2 7.8 2.4 8.9 1.3 6.3-.1 12.5 2.1 18.7 3.5 10 6.9 21.8 7.3 32.4 1.1 24-6.1 52.5 8.6 73.6 6.3 9 15.4 13.5 23.8 20 3.4 2.7 6.8 3.4 10.6 5.3 2.7 1.3 4.8 3.3 7.1 5.1 2.7 2.1 5.8 3.4 8.7 5.1 3.1 1.8 6.1 3.8 9.1 5.8 3.9 2.5 6 6.3 8.6 10.2 1.8 2.7 4.4 7.7 8.1 8.2 3.7.5 1.5-2.9.6-4.5-1.9-3.8-3.3-7.6-5.1-11.3z"/><path class="st0" d="M1635.9 797c-2.2-.4-4.2-1.4-6-2.6-1.9-1.1-3.6-2.4-5.3-3.8-1.9-1.5-3.8-3-5.8-4.3-3.5-2.3-6.2-6.1-9.4-8.9-1.3-1.1-2.6-2.1-4.1-3-2.9-1.8-6-3.3-9.1-4.7-1.1-.5-2.1-1-3.2-1.5-2.3-1.1-4.5-2.3-6.7-3.7-.7-.5-1.5-.8-2.3-1.2-.8-.4-1.5-.8-2.3-1.2-1.5-.8-3-1.7-4.5-2.5-2.9-1.7-5.8-3.6-8.5-5.6-2.7-2-5.2-4.2-7.5-6.7-4.4-4.7-9.2-8.8-12.9-14.2-5.6-8-8.1-18.3-9.4-27.8-1.4-10.2-5.1-19.9-7.4-30-1.5-6.6-1.8-13.4-3-20.1-1.1-6.7-2.5-13.4-4.3-19.9-3.5-13-8.5-25.5-15.3-37.2-2.6-4.4-5.2-8.9-7.4-13.5-2-4.1-6-6.8-7.7-11-1.7-4.2-5.2-7.8-8.4-10.9-4.2-4.1-7.2-8.9-10.8-13.4-6.6-8-10.7-17.9-19-24.5-9-7.1-15.9-16.5-24.1-24.5-8.1-8-16.4-15.8-24.4-23.9-8.1-8.2-17.6-15.2-25-24.2-14.4-17.5-31.9-32-46.6-49.4-14.7-17.4-31.7-35.5-40.2-56.9-2.1-5.3-4.4-10.5-6.5-15.8-2.1-5.5-2.4-11.4-4.1-17-3-10.5-6.7-20.9-6.4-32 .2-9.7 2.5-19 5.4-28.2 1.8-5.7 3.4-11.4 3.6-17.4.2-7.4 3.3-14.9 5.4-22 3.5-12.3 9.2-23.5 12-36.1 2.9-13.1 5.4-26.3 8.2-39.5 2.7-12.7 3.1-25.8 4.9-38.6 1-6.6 1.1-13 1.2-19.7 0-4.8 1.2-9.6.4-14.4-.7-4.4.8-8.8.8-13.2 0-4.7.2-9.3.2-13.9-.1-10 .6-20.1-1.1-29.9-.1-.6-.2-1.9-.5-2.9h-4.8c-.5 2.5 1.1 7.9 1.3 9.4 1.1 8.7 1.4 17.4 1.1 26.2-.3 8-.9 16.2-1.8 24.1-.9 8.2-.2 16.4-.8 24.6-.8 10.9-1.2 23-4.6 33.4-3.1 9.6-4.1 20.6-6.5 30.5-2.9 12.3-6 24.5-9.6 36.6-3.2 11-7.2 21.7-10.1 32.8-3 11.5-5.6 22.9-9.7 34.1-1.8 5-3.3 10.2-3.6 15.5-.3 5.5 1 10.9.7 16.5-.6 11.5 6.4 20.3 8.9 31.3 2.5 10.8 4.5 20.5 9.8 30.4 5.7 10.7 12.8 20.6 20.4 30 14.1 17.6 29.9 33.7 44.8 50.6 6.6 7.5 13.9 14.5 20.5 22 7.8 8.8 14.7 18.2 22.8 26.8 13.4 14.3 29.6 25.3 42.1 40.4 6.3 7.6 12.6 15.2 18.6 23 5.9 7.6 13.7 13.3 20.3 20.3 11.9 12.8 20 27.5 29.1 42.3 5.1 8.4 8.6 16.9 11.1 26.4 1.3 4.8 3.8 10.4 4 15.4.2 5.3 2.1 10.4 2.1 15.8.1 5.2-.8 10.4.1 15.5 2 11.4 5.3 22.7 8.8 33.8 2.6 8.3 4.6 16.7 9.1 24.3 1.5 2.5 3.1 5 4.9 7.4 1.4 1.9 2.7 4.3 4.7 5.7 2.3 1.6 4.9 3.1 7.3 4.8 5.4 3.7 11 6.9 16.7 10.1 5.7 3.2 11.8 5.9 17.8 8.3 5 1.9 8.4 5.8 12.4 9.1 1.8 1.5 3.6 3.1 5 4.9 1.4 1.8 3.3 3.1 5 4.6 1.8 1.7 3.6 3.4 5.7 4.7 3.7 2.2 7.6 2.5 11.8 2.9 1.1.1 6.8-.2 6.2-2.3-.1-1.4-3.6-.4-4.5-.5z"/><path class="st0" d="M1650.4 771.6c-4.4-2.8-9.6-4-14.5-5.6-5.4-1.7-9.3-5.1-14.3-7.4-4.8-2.2-10.3-.9-15.3-2.9-9.2-3.6-17.5-13-23.3-20.7-7.6-9.9-14-19.5-17.7-31.5-7.5-24.3-12.1-49.2-21.7-72.9-5.8-14.4-12.5-33.4-26.8-41.9-6.7-4-4.3 3.7-2.3 7.1 3.7 6.5 8.6 12.2 12.9 18.3 1.2 1.8 1.9 3.4 2.5 5.1.4 1.1.8 2.2 1.4 3.4 1.9 4.1 5 7.6 6.8 11.7 2.3 5.3 3.9 10.9 5.4 16.5 3 11.2 4.9 22.6 6.7 34 3.5 22 7.4 44.2 26 59.2 3.6 2.9 8.4 5.4 11.7 8.6 3.2 3.1 6.2 6.7 10.2 8.9 4.9 2.6 10 .8 15.2 1.5 5 .7 9 4.6 12.9 7.4 8.1 5.6 17.6 4.5 25.8 9.3 2.6 1.6 5.7 3.1 8.8 3.4h.2v-4.7s-.1 0-.1-.1c-4.3-1.2-6.8-4.3-10.5-6.7z"/><path class="st0" d="M1652.4 743.9c-13-3.6-26.3-10.2-37.1-18.4-17-13-30.2-30.9-40-49.7-11-21-16.7-44.7-25.4-66.7-4-10.1-8.2-20.7-14.7-29.5-5.9-8-13.4-14.3-18.9-22.7-5.2-7.9-13.7-12.9-20-19.8-7.2-7.8-16.4-14.6-20.7-24.5-2-4.6-3.4-9.4-5.6-13.9-2.2-4.6-5.4-8.6-7.2-13.3-4.3-10.8-10.2-18.5-17.4-27.6-13.8-17.3-27.4-35.1-36-55.6-9.2-22-20.1-43.8-26.3-66.9-4.4-16.3-5.9-33.5-8.6-50.1-3-18.2-3.5-36.8-3.4-55.2.1-14.7.9-29 2.9-43.5 2.1-14.7 1.6-29.2 1.5-44 0-11.1-.1-22.2-.3-33.3-.2-12.8-.5-25.5-.9-38.3-.4-13.5 2.4-27 2.3-40.5 0-6.4.2-12.9-.5-19.3-.2-1.9-.5-3.8-.7-5.6h-5.6c-.1.4-.1.9-.1 1.5-.2 4.1-.4 8.2-.7 12.3-.4 5.8-.8 11.4-1 17.2-.1 4.2-1.1 8.3-1.4 12.5-.2 4-.9 8-1.2 12-.3 4.3-.2 8.5-.4 12.8-.5 12.2 1.1 23.6 2.5 35.7 2.9 24.3.8 49.7-1.4 74-2.2 24.2-1.5 48.7.5 72.9 2 24.3 4.1 49.4 8.1 73.4 1.5 9 4.5 17.4 5.9 26.4.4 3 2.8 4.5 3.4 7.4 1 5.2 2.8 9.4 5.3 14 5.1 9.5 8.8 19.8 13.4 29.5 4.2 8.9 8.5 20.4 15.9 27.1 7.2 6.6 13.2 15.6 19.5 23.1 7.4 8.7 10.2 19.5 14.8 29.7 2 4.4 4.4 7.6 7.5 11.2 3.3 3.8 5.4 8.8 8.1 13.1 6 9.7 13.1 17.6 20.3 26.3 4.3 5.3 8.4 10 13.5 14.5 5 4.5 6.4 10 10.1 15.4 3.8 5.6 9.4 9 13.9 13.9 2.2 2.4 4.7 4.4 7 6.6 1.2 1.2 2.4 2.4 3.4 3.7.5.6.8 1.2 1.2 1.8.4.7 1 1.2 1.5 1.8.4.7.9 1.4 1.3 2.1.3.7.7 1.5 1.1 2.2.3.6.7 1.1 1 1.7.7 1.4 1.3 2.9 1.8 4.3.8 2 1.5 4 2.3 6 3.5 8.4 6.3 17 8.8 25.7 5 17.9 11.3 35.2 20.4 51.5 8.4 15.3 20.5 28.2 34.3 38.8 13.6 10.5 28.9 17.5 43.3 26.6 2.2 1.4 4.9 3 7.7 3.5v-11.2c-1.3-.2-2.5-.3-3.4-.6-2.1-.6-3.8-1.5-5.6-2z"/><path class="st0" d="M1650.2 635.8c-2.3-1.7-4.6-3.4-6.2-5.7-1.5-2.2-3.8-3.9-5.4-6.1-2.1-2.8-4.1-5.6-6.2-8.5-2-2.8-3.8-5.6-5.4-8.6-1.5-2.9-3.1-5.8-5-8.5s-3.8-5.5-5.4-8.4c-.9-1.6-1.6-3.2-2.5-4.8-4.7-8.6-10-17.1-15.8-25.1-8-11-17.8-20.3-25.9-31.1-9.5-12.7-21.4-23.9-32.7-34.9-5.8-5.6-11.2-11.6-16.1-18.1-4.1-5.5-7.6-15.6-14.1-18.7-5.4-5.2-14-10.3-18-16.6-5.4-8.7-11.5-16.7-16.5-25.7-.9-1.8-1.8-3.7-2.7-5.5-1.4-2.8-2.9-5.9-4-8.8-1-2.4-1.4-5.2-2.3-7.7-.6-1.7-1.1-3.4-1.9-5-.8-1.7-2.1-3.5-3.2-5.1-1.3-1.9-3.3-3.2-4.6-5.1-.9-1.2-2.5-6.5-4.7-4.9-1.1.9-.6 3.1-.4 4.3.3 1.6 1.1 3 1.8 4.4.9 1.9 1.3 3.9 2.2 5.9 1.1 2.4 2.1 4.8 3.2 7.1 2.2 4.8 4.5 9.5 6.9 14.2 4.8 9.3 10.1 18.5 16.4 26.9 5.2 7 10.5 13.1 17.3 18.7 4 3.3 7.7 5.8 10.2 10.4 2.5 4.5 5.6 8.2 8.9 12.1 14.2 16.6 29.4 32.2 44.2 48.2 13.9 15 27.1 29.9 38 47.4 6.1 9.9 11.6 20.1 17 30.4 3 5.8 5.5 12.1 8.8 17.7 1.2 2.1 1.8 4.3 2.9 6.4 1.3 2.4 3 4.5 4.4 6.8 5.1 8.4 13 14.4 22.3 17.8 1.5.6 3.3 1.3 5.1 1.9v-12.4c-1.8-.8-3.7-1.5-5.6-2.3-1.6-.6-3.4-1.8-5-3zM1652.4 583.2c-11.2-6.9-19.5-17.7-27.4-28-6-7.9-12-15.6-18.7-22.9-7.9-8.5-14.5-18.2-22.6-26.4-15.3-15.4-29.8-32.3-46.5-46.1-3.2-2.7-9.3-5.5-11.5-9-2.2-3.6-4.4-7-6.9-10.5-6.5-9.3-11.8-19.3-17.4-29.2-11.5-20.1-25.6-37.6-35.1-59-9.7-21.9-20.3-43.6-24.3-67.4-1.9-11.5-4.7-22.7-6.7-34.2-1.2-7-2.3-13.5-1.9-20.5.5-7.2-2.3-13.8-3.1-20.9-.6-5.6-.7-11.1-1.8-16.7-2.2-12-4-24-5.7-36-1.6-10.8-2.4-21.7-2.8-32.5-.5-12.4-.5-24.8-.6-37.2 0-6.2-.1-12.4-.2-18.6-.1-5.6-1-11.3-.4-16.8.6-6.2-.4-13.2-1.2-19.4-.3-2.5-.7-4.8-.8-7.3-.1-4 .9-8.1.3-12.1-.2-1.7-.1-5.2-1-7h-4.1c0 8.9 1.8 17.8 2.2 26.7.3 5.3.6 10.9.2 16.2-.5 5.9-1.6 11.9-2.3 17.7-.8 6 .1 12.2-.4 18.2-.6 6.3-.9 12.5-.9 18.9 0 7.9.4 15.5 1.5 23.3.1.9.3 1.9.5 2.8 1 5.7 2.2 11.3 2.5 17 .7 11.6-1.4 23.3.3 34.8 1.1 7.2 2.5 14.4 4 21.5 2.1 10.2 3 20.5 4.6 30.8.7 4.3 1.7 8 3.1 12.1 1.5 4.4 1.6 9.3 2.7 13.8 2.4 9.8 5.6 19.5 6.1 29.6.3 5 2.5 8.9 3.6 13.6 1.3 5.7 2.7 11.4 3.8 17.1 4.2 20.9 16.5 40.7 27.6 58.7 5.6 9.1 10.3 18.6 15.7 27.7 5.5 9.2 9.9 19.7 16.4 28.3 6 8.1 11.2 16.7 17.5 24.6 7.2 9.1 17.1 15.1 24.7 23.8 3.1 3.6 6.7 6.7 10.2 9.9 2.8 2.5 6.1 7.6 9.7 9 3.6 1.4 5.6 5 7.3 8.1 2.6 4.8 5.9 8.8 9.3 13.1 6.7 8.6 13.3 17.3 21 25.1 7.8 8 16.1 16.5 22.5 25.8 3.5 5.1 8.5 9.1 13 13.3 6.1 5.7 13.9 15.9 22.8 19.1v-18.8h-.1c-3.2-1-6-2.5-8.7-4.1zM1632.8 380.4c-13.3-10.1-25.1-24.4-36.2-36.8-22.1-24.7-41.7-50.4-56.4-80.2-3.1-6.3-6.1-12.7-8.3-19.3-2.9-9-3.7-18.4-5.4-27.7-1.8-9.2-1.9-18.4-3.1-27.7-1.3-10.2-3.1-20.2-3.3-30.6-.2-9.7-.1-19.4 0-29.1 0-4.2-.2-8.5.5-12.6.9-4.8 3.7-8.9 4.7-13.7 1.8-8.8 3.3-16.5 6.4-25 1.4-4 2.6-8 3.4-12.2.7-3.7.2-7.2.6-11 .2-2.1.6-3.7 1.3-5.7 1.9-5.8 2.1-11.8 3-17.8.8-5.5 2-10.6 3.9-15.9 1.1-3.1 2-6.5 2-9.8h-4.5c-2.6 3.1-3.6 9.4-4.2 11.9-2 9.1-4.9 18.1-8 26.9-2.8 7.9-4.3 16.1-6.7 24.1-2.3 7.8-1.8 16.6-3.6 24.6-2.3 10.1-7.6 18.6-8.5 29.2-.9 11-.6 22.3.1 33.3.4 6.5 1.6 12.8 2.6 19.3 1.1 7.3.2 14.7 1.5 22 2.5 14.4 2.6 29.1 6.4 43.3 7.1 26.9 20.9 54 38.5 75.4 15.9 19.3 30.7 40.2 48 58.3l4.8 4.8c8.1 7.6 17.3 14.2 27.6 18.5 5.1 2.1 10.3 3.6 15.7 4.6 1.7.3 3.4.5 5.2.7v-9.3c-2.6-.5-5.2-1.2-7.7-2-7.1-2.4-14.2-5.9-20.3-10.5z"/><path class="st0" d="M1644.1 338.9c-18.2-7.8-31.9-22-37.5-41.4-5.7-20.1-22.5-35.3-30.6-54.4-6.2-14.6-9.6-30.1-11.8-45.8-2.3-16-4.4-32.5-2.5-48.6 1-8.5 3.4-16.6 5.6-24.8 2.2-8.2 1.8-16.9 4.3-25 2.7-8.8 5.9-17.4 8.1-26.3 1.2-5 2.5-10 3.7-15.1.9-3.9 1.6-8.2 3.3-11.9 1.1-2.4 3-4.2 4.3-6.4 4.2-6.9 6.1-16.4 7.9-24.2.5-2.2 2.1-7.3 1.1-9.5 0-.1-.1-.1-.1-.2h-22.3c-.3.1-.7.2-1 .3-3.9 1.3-5.4 3.6-6.9 7.5-3.6 9.1-8 17.8-10.6 27.3-.5 2-.7 3.8-1.7 5.6-1.1 2.2-3 3.9-4.1 6.1-7.1 13.1-5.9 28.2-9.4 42.3-1.6 6.6-5 12.2-7.4 18.4-2.3 6.3-3.6 12.9-4.3 19.5-.7 6.6-.8 13.3-.7 19.9.1 4.1.8 8.1 1.6 12l.6 3c.2.9.2 1.9.4 2.8.2.9.3 1.9.4 2.8.1 1.1.2 2.3.3 3.4.1 1 .1 2.1.1 3.1 0 .9.1 1.8.2 2.7.1 2.1.2 4.2.3 6.4.1 4.2.3 8.5.5 12.7.1 2.1.2 4.1.4 6.2 1 11.9 3.6 23.9 6.9 35.3 6.1 21 17.4 39.7 30.6 56.9 6.4 8.3 12.9 16.7 20.2 24.1 7.3 7.5 17.8 14.2 23.5 23.1 4.6 7.2 11.5 11.2 17.1 17.6 6 6.9 13.8 10.7 22.9 11.9 1.1.1 2.3.4 3.5.6v-33.3c-.5-.1-1.1-.3-1.6-.4-5.1-1.3-10.4-2.1-15.3-4.2z"/><path class="st0" d="M1645.9 129.2c-8.5 13.7-10.3 28.4-9.8 44.2.5 15.5-.8 32.3 1.5 47.6 2.1 13.9 8.4 25.4 17 36.3.7.9 1.5 1.8 2.3 2.6.6.6 2.2 2.1 4.1 3.8v-51.1c-8.2-8.9-12.6-18.5-12.6-31.5 0-17 4.4-35.8 12.6-50.7V110c-1.2 1.2-2.1 2.4-2.7 3-4.7 5-8.8 10.4-12.4 16.2z"/><path class="st0" d="M1658 18.5c-4.4 6.5-8.3 13.2-11.7 20.2-2.4 4.8-4 9.9-6.2 14.9-2.7 6-4.2 12.5-6.6 18.6-5.1 12.9-12.1 25.1-17.4 38-5.4 13.3-7.8 26.5-9.7 40.6-.9 6.8-1.9 13.7-2.4 20.6-.2 3.4-.3 6.9-.2 10.3.1 3.3.3 6.8 1.1 10.1.5 1.8.9 3.7 1.4 5.5 1.1 4.6 2.3 9.3 3.5 13.9 1.7 6.2 3.5 12.3 5.4 18.4 2 6.1 4.1 12.1 6.5 18.1 2.4 5.9 5 11.7 8 17.2.5.9 1 1.8 1.5 2.6 4.9 8.6 10.6 16.8 18.6 22.7 2.6 1.9 5.3 3.7 8.1 5.3.7.4 1.8 1 3 1.5v-8.8c-2.7-1.3-5.4-2.5-7.8-4.4-8.6-6.9-12.8-17.8-17.4-27.5-10.6-22.8-18.7-47.1-19.3-72.5-.3-11.2 2.1-23.8 4.5-34.7 2.6-12 5.6-24.3 9.6-35.9 4-11.6 11.3-20.6 16.5-31.5 2.1-4.4 3.4-9.2 4.1-14 .6-4.3 2.2-8 3.7-12.1s3.3-7.8 5.7-11.5c.1-.2.2-.3.3-.5v-30c-1.3 2.2-2.5 4.2-2.8 4.9z"/></svg>